<svg xmlns="http://www.w3.org/2000/svg" viewBox="0 0 28.69 25.82"><defs><style>.cls-1{fill:#272626;}</style></defs><g id="Layer_2" data-name="Layer 2"><g id="Layer_1-2" data-name="Layer 1"><polygon class="cls-1" points="27.74 23.91 0.96 23.91 0 25.82 28.69 25.82 27.74 23.91"/><path class="cls-1" d="M14.35,7.65a4.68,4.68,0,0,1,.06-.76A4.22,4.22,0,0,1,15,5.36a2.85,2.85,0,0,1,2.41-1.53c-1.66,0-3-1.72-3-3.83,0,2.11-1.35,3.83-3,3.83C13,3.83,14.35,5.54,14.35,7.65Z"/><path class="cls-1" d="M6.61,7.65a3.55,3.55,0,0,1,0-.57,3.16,3.16,0,0,1,.41-1.14A2.14,2.14,0,0,1,8.88,4.78,2.62,2.62,0,0,1,6.61,1.91c0,1.59-1,2.87-2.26,2.87C5.6,4.78,6.61,6.07,6.61,7.65Z"/><path class="cls-1" d="M22.08,7.65a3.56,3.56,0,0,1,0-.57,3.16,3.16,0,0,1,.41-1.14,2.15,2.15,0,0,1,1.81-1.16c-1.25,0-2.26-1.28-2.26-2.87,0,1.59-1,2.87-2.26,2.87C21.07,4.78,22.08,6.07,22.08,7.65Z"/><path class="cls-1" d="M25.82,12.43H1.91l1,1.92h1L2.39,23H7.65v-8.6h1v5.74h1a1.92,1.92,0,1,1,3.83,0h1a1.91,1.91,0,1,1,3.82,0h1V14.35h1V23h5.26l-1.44-8.6h1Z"/><rect class="cls-1" x="0.96" y="9.56" width="25.82" height="1.91"/></g></g></svg>