<svg xmlns="http://www.w3.org/2000/svg" viewBox="0 0 28.69 16.82"><defs><style>.cls-1{fill:#272626;}</style></defs><g id="Layer_2" data-name="Layer 2"><g id="Layer_1-2" data-name="Layer 1"><path class="cls-1" d="M5.74,6.34A5.88,5.88,0,0,1,6.81,8.71a5.69,5.69,0,0,1,.12,1.18H19.79V0H0V4H1A5.92,5.92,0,0,1,5.74,6.34Z"/><path class="cls-1" d="M20.78,1V6.93c4.37,0,7.91-2.67,7.91-5.94Z"/><polygon class="cls-1" points="20.78 13.85 17.81 10.88 8.9 10.88 5.94 13.85 4.95 13.85 1.98 16.82 5.94 16.82 6.93 15.83 19.79 15.83 20.78 16.82 24.74 16.82 21.77 13.85 20.78 13.85"/></g></g></svg>