<svg xmlns="http://www.w3.org/2000/svg" viewBox="0 0 10.85 28.68"><defs><style>.cls-1{fill:#272626;}</style></defs><g id="Layer_2" data-name="Layer 2"><g id="Layer_1-2" data-name="Layer 1"><path class="cls-1" d="M5.42,19A8.61,8.61,0,0,0,2.74,17.6L5.42,7.93,8.11,17.6A8.66,8.66,0,0,0,5.42,19Z"/><path class="cls-1" d="M6.51,21.71a5.39,5.39,0,0,1,4.34-2.19L5.42,0,0,19.52a5.39,5.39,0,0,1,4.34,2.19V23.8L3.25,25.42l2.17,3.26,2.17-3.26L6.51,23.8Zm-4.1-2.84-1-.32,4-14.44,4,14.44-1,.32A7.71,7.71,0,0,0,6.08,20.1l-.66.51-.66-.51A7.55,7.55,0,0,0,2.41,18.87Zm3.82,7-.81,1.22-.8-1.22h0a.7.7,0,0,1,0-.81h0l.8-1.22L6.23,25h0a.7.7,0,0,1,0,.81Z"/></g></g></svg>