<svg xmlns="http://www.w3.org/2000/svg" viewBox="0 0 18.65 25.88"><defs><style>.cls-1{fill:#272626;}</style></defs><g id="Layer_2" data-name="Layer 2"><g id="Layer_1-2" data-name="Layer 1"><path class="cls-1" d="M3.77,1.54l.52-.47L3.34,0,2.82.47A8.29,8.29,0,0,0,.47,4l1.35.47A7,7,0,0,1,3.77,1.54Z"/><path class="cls-1" d="M1.43,6.73a6.68,6.68,0,0,1,.09-1.09L.1,5.41A8.42,8.42,0,0,0,2.82,13l.52.47,1-1.08-.52-.46A7,7,0,0,1,1.43,6.73Z"/><path class="cls-1" d="M2.63,6.73A5.74,5.74,0,0,0,4.56,11L6.93,9.6V3.86L4.56,2.43A5.78,5.78,0,0,0,2.63,6.73Z"/><path class="cls-1" d="M14.88,11.92l-.52.46,1,1.08.53-.47a8.49,8.49,0,0,0,2.34-3.5L16.83,9A7,7,0,0,1,14.88,11.92Z"/><path class="cls-1" d="M15.83.47,15.31,0l-1,1.07.52.47a6.94,6.94,0,0,1,2.34,5.19,6.59,6.59,0,0,1-.09,1.09l1.42.23A8.42,8.42,0,0,0,15.83.47Z"/><path class="cls-1" d="M16,6.73a5.78,5.78,0,0,0-1.93-4.3L11.72,3.86V9.6L14.09,11A5.74,5.74,0,0,0,16,6.73Z"/><rect class="cls-1" x="7.62" y="3.15" width="3.35" height="7.17"/><path class="cls-1" d="M7.38,24a1.91,1.91,0,0,0,3.82,0V23H7.38Z"/><rect class="cls-1" x="8.33" y="17.75" width="1.91" height="4.3"/><rect class="cls-1" x="8.33" y="11.06" width="1.91" height="5.74"/><path class="cls-1" d="M10.72,2A1.44,1.44,0,1,0,7.85,2v.48h2.87Z"/></g></g></svg>