<svg xmlns="http://www.w3.org/2000/svg" viewBox="0 0 27.13 17.83"><defs><style>.cls-1{fill:#272626;}</style></defs><g id="Layer_2" data-name="Layer 2"><g id="Layer_1-2" data-name="Layer 1"><path class="cls-1" d="M24.94,9.43a.69.69,0,0,0-.49-.21h-.54a.68.68,0,0,0-.66.56,1.88,1.88,0,0,1-.42.87s-2.4-4.78-3.35-4.78c-.61,0-.83-.78-.91-1.34A.68.68,0,0,0,17.9,4H15.17c-.46-.23-.36-.46-.14-.64a.65.65,0,0,0,.06-1A8.32,8.32,0,0,0,12.3.13a1.6,1.6,0,0,0-1.71.23.66.66,0,0,0-.2.48A9.29,9.29,0,0,1,10,3.77a.7.7,0,0,1-.23.31C7.5,5.83,7,4.92,6.09,4.92c-.68,0-1.83,3.34-2.45,5.3a.67.67,0,0,1-1.13.26l0,0a.67.67,0,0,0-1,0C-.79,13,.1,14.59.59,15.19a.67.67,0,0,0,.52.25h4.5v.48c-1.95,0-.72,1.27-.2,1.74a.7.7,0,0,0,.45.17H9.44V10.18C9.6,8.84,11.15,7.79,13,7.79s3.42,1,3.59,2.39v7.65H20c.95,0,1.91-.48,1.43-1a3.42,3.42,0,0,1-.48-1.43h5.28a.66.66,0,0,0,.64-.48,6,6,0,0,0,.3-1.91C27.13,11.87,25.52,10.05,24.94,9.43Z"/><circle class="cls-1" cx="13.02" cy="11.61" r="0.96"/><circle class="cls-1" cx="13.02" cy="14.96" r="0.96"/></g></g></svg>