<svg xmlns="http://www.w3.org/2000/svg" viewBox="0 0 28.48 28.48"><defs><style>.cls-1{fill:#272626;}</style></defs><g id="Layer_2" data-name="Layer 2"><g id="Layer_1-2" data-name="Layer 1"><path class="cls-1" d="M28.48,28.48a14,14,0,0,1-1.75-2.15,4.05,4.05,0,0,1-.61-2.4c0-.84.27-1.77.32-2.81a8.3,8.3,0,0,0-.5-3.1,9.53,9.53,0,0,0-4.05-4.73,8.92,8.92,0,0,0-3-1.18A5.28,5.28,0,0,0,18,12a.77.77,0,0,1-.24-.06,1.15,1.15,0,0,1-.37-.24l7.55-7.55a3,3,0,0,1,.77,2.13A12.83,12.83,0,0,1,28.48.16a12.93,12.93,0,0,1-6.13,2.78,4.76,4.76,0,0,1,2.09.8l-7.52,7.53a1.83,1.83,0,0,1-.4-.53.74.74,0,0,1-.05-.24,5.28,5.28,0,0,0-.1-.91,8.92,8.92,0,0,0-1.18-3,9.5,9.5,0,0,0-4.73-4,8.1,8.1,0,0,0-3.1-.5c-1,0-2,.27-2.81.31a4,4,0,0,1-2.4-.61A14,14,0,0,1,0,0H0A10.25,10.25,0,0,0,1.73,2.31,4.37,4.37,0,0,0,2.59,3q2.05,2.3,4.17,4.52c2.26,2.39,4.58,4.72,6.9,7.06l-6,6H5.53L1.7,24.38H4.25v2.55l3.83-3.82V21l6-6c2.3,2.25,4.6,4.5,6.94,6.71l3.68,3.43.72.65a4.91,4.91,0,0,0,.72,1,10.51,10.51,0,0,0,2.31,1.72ZM7.11,7.13,3.23,3.27a5.15,5.15,0,0,0,1.28.34c1,.1,2,0,2.81.1a7,7,0,0,1,2.37.66A8,8,0,0,1,13.1,7.79,7.34,7.34,0,0,1,13.92,10a3,3,0,0,1,0,.5,3.48,3.48,0,0,0,.21,1.12,4,4,0,0,0,.95,1.44l-1,1ZM21.39,21.32l-6.83-6.79,1-1a3.86,3.86,0,0,0,1.28.79,3,3,0,0,0,1.12.21,4.57,4.57,0,0,1,.5,0,7.36,7.36,0,0,1,2.21.82A7.9,7.9,0,0,1,24.1,18.8a6.82,6.82,0,0,1,.67,2.36c.1.84,0,1.78.1,2.82a4.84,4.84,0,0,0,.3,1.16C23.91,23.87,22.66,22.59,21.39,21.32Z"/></g></g></svg>