<svg xmlns="http://www.w3.org/2000/svg" viewBox="0 0 28.69 19.71"><defs><style>.cls-1{fill:#272626;}</style></defs><g id="Layer_2" data-name="Layer 2"><g id="Layer_1-2" data-name="Layer 1"><path class="cls-1" d="M.79,7.41a2.64,2.64,0,0,0,.9.19,3.49,3.49,0,0,0,.91-.11,3.77,3.77,0,0,0,.82-.3.42.42,0,0,1,.12,0A4.59,4.59,0,0,1,3.48,5.2a3.86,3.86,0,0,1,1.05-2l0,0a1.84,1.84,0,0,1,.55-.44,3,3,0,0,1,.61-.27,3.68,3.68,0,0,1,1.27-.14,6.3,6.3,0,0,1,1.23.19l.58.19.58.22-.59-.15-.6-.12a5.36,5.36,0,0,0-1.2,0,3.58,3.58,0,0,0-1.13.26,2.87,2.87,0,0,0-.48.28A1.72,1.72,0,0,0,5,3.51l0,0a3.21,3.21,0,0,0-.66,1.77,3.84,3.84,0,0,0,.35,1.83A3.11,3.11,0,0,0,5.76,8.49,3.25,3.25,0,0,0,7.38,9h.18l.26,0,.47-.05a5.78,5.78,0,0,0,.92-.19A6.67,6.67,0,0,0,10.9,8a6.41,6.41,0,0,0,.73-.52l.4-.33c.15-.12.29-.25.45-.36a12.07,12.07,0,0,1,2-1.25,9,9,0,0,1,2.15-.78l.05-.1a2.68,2.68,0,0,0,.26-.51,4,4,0,0,0,.2-.58,4.26,4.26,0,0,0,.18-1.23,3.07,3.07,0,0,0-.25-1.25A3.32,3.32,0,0,0,16.28,0a3.82,3.82,0,0,1,1.18.84,3.86,3.86,0,0,1,.8,1.32,5.86,5.86,0,0,1,.32,1.55,7,7,0,0,1,0,.79,1,1,0,0,0,0,.17,7.46,7.46,0,0,1,.93.14A6.65,6.65,0,0,1,22,6a8.28,8.28,0,0,1,1.82,2,13,13,0,0,1,1.54,3.31l.15-.07c.2-.1.39-.21.59-.33a8.57,8.57,0,0,0,1.1-.8,5.59,5.59,0,0,0,.9-1,3.85,3.85,0,0,0,.51-1.31,4,4,0,0,1-.06,1.5A6.05,6.05,0,0,1,28,10.7,9.26,9.26,0,0,1,27.11,12c-.17.2-.35.4-.53.59a6.89,6.89,0,0,1-.61.57l-.06,0h0c.11.53.21,1.06.28,1.59.05.38.1.77.13,1.16l.05.58c0,.21,0,.38,0,.65v.16a2.4,2.4,0,0,1,0,.37A2.35,2.35,0,0,1,21.7,17c0-.08,0-.27,0-.41l0-.47c0-.31,0-.63,0-.95a17,17,0,0,0-.12-1.89,12.7,12.7,0,0,0-.51-2.38,3.57,3.57,0,0,1-.28.27,5,5,0,0,1-1.49,1,4.22,4.22,0,0,1-.84.24,4,4,0,0,1-.84,0,4.72,4.72,0,0,1-1.56-.4,4.19,4.19,0,0,0,1.51-.09,3,3,0,0,0,.67-.25,2.87,2.87,0,0,0,.57-.39,3.81,3.81,0,0,0,.86-1,4.73,4.73,0,0,0,.29-.6l.11-.32A2.27,2.27,0,0,0,20.2,9h0a3.47,3.47,0,0,0-1.53-1.18,4,4,0,0,0-.74-.19l-.42,0H17.2A6.53,6.53,0,0,0,15.51,8a11.07,11.07,0,0,0-1.71.81L13.39,9l-.46.29a7.76,7.76,0,0,1-1.06.57,8.33,8.33,0,0,1-2,.62.49.49,0,0,1,.05.27h0c0,.33,0,.64-.08,1s-.09.63-.15.95A5.11,5.11,0,0,1,9,14.46a3.41,3.41,0,0,0,.11-.9,5.26,5.26,0,0,0,0-.89,8.68,8.68,0,0,0-.14-.89c-.06-.29-.12-.59-.2-.86a.4.4,0,0,1,0-.19.28.28,0,0,1,0-.09h-.9l-.27,0a1.78,1.78,0,0,1-.35,0A4.69,4.69,0,0,1,5,9.55a4.19,4.19,0,0,1-1-1.29l-.12,0h0a4.4,4.4,0,0,1-1.13.07,3.89,3.89,0,0,1-1.08-.2,2.9,2.9,0,0,1-.95-.51A2.61,2.61,0,0,1,0,6.85,2.66,2.66,0,0,0,.79,7.41Z"/></g></g></svg>