<svg xmlns="http://www.w3.org/2000/svg" viewBox="0 0 28.69 19.71"><defs><style>.cls-1{fill:#272626;}</style></defs><g id="Layer_2" data-name="Layer 2"><g id="Layer_1-2" data-name="Layer 1"><path class="cls-1" d="M27.9,7.41a2.54,2.54,0,0,1-.9.19,3.36,3.36,0,0,1-.9-.11,3.59,3.59,0,0,1-.82-.3l-.12,0a4.75,4.75,0,0,0,.06-1.95,4,4,0,0,0-1.06-2l0,0a1.84,1.84,0,0,0-.55-.44A2.77,2.77,0,0,0,23,2.48a3.62,3.62,0,0,0-1.26-.14,6.19,6.19,0,0,0-1.23.19l-.59.19-.57.22L20,2.79l.59-.12a5.41,5.41,0,0,1,1.2,0,3.58,3.58,0,0,1,1.13.26,2.52,2.52,0,0,1,.48.28,1.51,1.51,0,0,1,.36.35l0,0a3.21,3.21,0,0,1,.66,1.77,3.72,3.72,0,0,1-.34,1.83,3.13,3.13,0,0,1-1.13,1.35A3.22,3.22,0,0,1,21.31,9h-.17l-.27,0-.47-.05a5.78,5.78,0,0,1-.92-.19A6.67,6.67,0,0,1,17.79,8a7.44,7.44,0,0,1-.73-.52l-.4-.33c-.15-.12-.29-.25-.45-.36a12,12,0,0,0-2-1.25,9.06,9.06,0,0,0-2.16-.78.31.31,0,0,0-.05-.1,3.42,3.42,0,0,1-.26-.51c-.07-.19-.14-.38-.2-.58a4.63,4.63,0,0,1-.18-1.23,3.24,3.24,0,0,1,.25-1.25A3.21,3.21,0,0,1,12.42,0a3.74,3.74,0,0,0-1.19.84,4,4,0,0,0-.8,1.32,5.86,5.86,0,0,0-.32,1.55,6.94,6.94,0,0,0,0,.79.91.91,0,0,0,0,.17,7.91,7.91,0,0,0-.94.14A6.65,6.65,0,0,0,6.65,6,8.28,8.28,0,0,0,4.83,8a13.38,13.38,0,0,0-1.54,3.31l-.14-.07c-.2-.1-.4-.21-.59-.33a7.93,7.93,0,0,1-1.1-.8,4.93,4.93,0,0,1-.9-1A3.48,3.48,0,0,1,.05,7.75,4,4,0,0,0,.1,9.25,6.5,6.5,0,0,0,.69,10.7,9.34,9.34,0,0,0,1.59,12a7.23,7.23,0,0,0,.53.59c.19.19.36.37.6.57l.06,0h0c-.11.53-.21,1.06-.29,1.59,0,.38-.09.77-.13,1.16l0,.58c0,.21,0,.38,0,.65v.16a2.4,2.4,0,0,0,0,.37A2.36,2.36,0,0,0,7,17a3.55,3.55,0,0,1,0-.41l0-.47c0-.31,0-.63,0-.95,0-.63.05-1.27.12-1.89a12.7,12.7,0,0,1,.51-2.38l.28.27a5.14,5.14,0,0,0,1.49,1,4.22,4.22,0,0,0,.84.24,4.07,4.07,0,0,0,.85,0,4.66,4.66,0,0,0,1.55-.4,4.21,4.21,0,0,1-1.51-.09,3,3,0,0,1-.67-.25,3.19,3.19,0,0,1-.57-.39,3.61,3.61,0,0,1-.85-1,4.73,4.73,0,0,1-.29-.6,2,2,0,0,1-.11-.32A1.26,1.26,0,0,1,8.5,9h0A3.5,3.5,0,0,1,10,7.83a4.22,4.22,0,0,1,.74-.19l.42,0h.31A6.44,6.44,0,0,1,13.18,8a11.07,11.07,0,0,1,1.71.81L15.3,9l.46.29a7.32,7.32,0,0,0,1.07.57,8.13,8.13,0,0,0,2,.62.76.76,0,0,0-.05.27h0c0,.33,0,.64.08,1s.09.63.15.95a4.93,4.93,0,0,0,.66,1.76,3.42,3.42,0,0,1-.12-.9,6.55,6.55,0,0,1,.05-.89,8.68,8.68,0,0,1,.14-.89c.06-.29.13-.59.2-.86a.58.58,0,0,0,0-.19.29.29,0,0,0,0-.09h.9l.27,0a1.78,1.78,0,0,0,.35,0,4.73,4.73,0,0,0,2.26-1,4.16,4.16,0,0,0,1-1.29l.13,0h0A4.48,4.48,0,0,0,26,8.37a4,4,0,0,0,1.08-.2,3,3,0,0,0,.95-.51,2.57,2.57,0,0,0,.63-.81A2.53,2.53,0,0,1,27.9,7.41Z"/></g></g></svg>