<svg xmlns="http://www.w3.org/2000/svg" viewBox="0 0 25.82 27.26"><defs><style>.cls-1{fill:#272626;}</style></defs><g id="Layer_2" data-name="Layer 2"><g id="Layer_1-2" data-name="Layer 1"><path class="cls-1" d="M23,13.87h-.48V12.43h1.43V10.52L13.15,6.31V2.84H14.5s1.44,0,1.68.88a.32.32,0,0,0,.3.26h3a.27.27,0,0,0,.24-.12L21,2.18a.3.3,0,0,0-.24-.48H18.66a.28.28,0,0,1-.24-.13,2,2,0,0,0-1.64-1H13.15V.36a.36.36,0,1,0-.72,0v6L1.91,10.52v1.91H3.35v1.44H2.87L0,27.26H9.09l3.82-11,3.83,11h9.08Zm-16.74,0H4.3V12H6.22Zm2.87,0H7.17V12H9.09Zm3.34,0H10.52V12h1.91Zm2.87,0H13.39V12H15.3Zm3.35,0H16.74V12h1.91Zm2.87,0H19.61V12h1.91Z"/></g></g></svg>