<svg xmlns="http://www.w3.org/2000/svg" viewBox="0 0 24.87 27.02"><defs><style>.cls-1{fill:#272626;}</style></defs><g id="Layer_2" data-name="Layer 2"><g id="Layer_1-2" data-name="Layer 1"><polygon class="cls-1" points="5.74 12.91 5.74 11.48 6.7 10.52 8.61 10.52 9.56 11.48 10.52 11.48 11.48 10.52 13.39 10.52 14.35 11.48 15.3 11.48 16.26 10.52 18.17 10.52 19.13 11.48 19.13 12.91 5.74 12.91"/><path class="cls-1" d="M3.11,0H2.63C2.31,5.5,0,6.7,0,6.7V8.13H1.43v1h.48v-1H3.83v1H4.3v-1H5.74V6.7S3.42,5.5,3.11,0Z"/><path class="cls-1" d="M22.24,0h-.48c-.32,5.5-2.63,6.7-2.63,6.7V8.13h1.43v1H21v-1H23v1h.47v-1h1.44V6.7S22.55,5.5,22.24,0Z"/><path class="cls-1" d="M23.91,15.54V9.8H20.09v4.79h-1v-1h-1v1h-1v-1h-1v1h-1v-1H13.39v1H11.48v-1H9.56v1h-1v-1h-1v1h-1v-1h-1v1h-1V9.8H1v5.74l1.91,2.87v5.74L1.91,27H8.85V22.24c.16-1.34,1.71-2.39,3.58-2.39s3.42,1,3.59,2.39V27H23l-1-2.87V18.41ZM3.83,14.11H1.91V11.72a1,1,0,1,1,1.92,0Zm6.93,4.54H8.85V16.74a1,1,0,1,1,1.91,0Zm2.63,0H11.48V16.74a1,1,0,1,1,1.91,0Zm2.63,0H14.11V16.74a1,1,0,1,1,1.91,0Zm5-4.54V11.72a1,1,0,1,1,1.92,0v2.39Z"/></g></g></svg>