<svg xmlns="http://www.w3.org/2000/svg" viewBox="0 0 27.69 15.24"><defs><style>.cls-1{fill:#272626;}</style></defs><g id="Layer_2" data-name="Layer 2"><g id="Layer_1-2" data-name="Layer 1"><path class="cls-1" d="M.78,15.24A.79.79,0,0,1,0,14.36a4.75,4.75,0,0,1,.92-2.58c1-1-1-2.47.49-2.47s1.46,0,1.46,5.13a.79.79,0,0,1-.78.8Z"/><path class="cls-1" d="M4.33,13.1s1-9.38,2.92-9.38c1.48,0,2.67-1.43,3.16-2.11a1.59,1.59,0,0,1,.72-.56A6,6,0,0,1,15.51,1,1.45,1.45,0,0,0,17.42.36l0-.1c.48-1,1.46,1,1.94,3.46s1.46,1,1.95,1.48,1.27,2.88,1.43,7.69a1.63,1.63,0,0,1-1.61,1.69h-3.9a1.61,1.61,0,0,1-1.38-.8A2.08,2.08,0,0,1,16,11.12c1.46-1.48-1.47-2.47-1.46-3,0-1.93,0-2.81-2-2.47s-1.95,3-1.95,3.46-1,2.47-1.46,2.47c-.3,0-.42,1.17-.46,2a1.59,1.59,0,0,1-1.25,1.52,3.47,3.47,0,0,1-2.29-.39A1.52,1.52,0,0,1,4.48,14,2.71,2.71,0,0,1,4.33,13.1Z"/><path class="cls-1" d="M24.77,11.46s-1,3,0,3.45,2.92.5,2.92-.49-1-3.95-2-3.95A1,1,0,0,0,24.77,11.46Z"/></g></g></svg>