<svg xmlns="http://www.w3.org/2000/svg" viewBox="0 0 28.69 21.04"><defs><style>.cls-1{fill:#272626;}</style></defs><g id="Layer_2" data-name="Layer 2"><g id="Layer_1-2" data-name="Layer 1"><path class="cls-1" d="M12.46,15.78h0Z"/><path class="cls-1" d="M7.67,15.78h0Z"/><path class="cls-1" d="M27.74,11h-11v1.43a1.44,1.44,0,0,1,0,2.87h-.06a2.74,2.74,0,0,0-2,.95.5.5,0,0,1-.79,0,2.72,2.72,0,0,0-2-.95h-.05a1.44,1.44,0,0,1,0-2.87V11H1L4.3,17.69H2.87L4.3,21H6.22l1-1.43h5.74l1,1.43h1l.95-1.43h5.74l1,1.43h1.91l1.43-3.35H24.39ZM6.06,12H7.77a.18.18,0,0,1,.18.16l.53,3.91a.19.19,0,0,1-.35.12L5.9,12.3A.19.19,0,0,1,6.06,12Zm14.15,4.07.53-3.91a.19.19,0,0,1,.19-.16h1.7a.18.18,0,0,1,.16.28l-2.23,3.91A.19.19,0,0,1,20.21,16.09Z"/><path class="cls-1" d="M27.26,7.65,24.39,0H23L21.52,1.43H20.09L19.13,0H17.69l-1,1.43H12L11,0H9.56l-1,1.43H7.17L5.74,0H4.3L1.43,7.65H0V9.56H28.69V7.65ZM7.77,8.13H6.06a.19.19,0,0,1-.16-.28L8.13,3.94a.19.19,0,0,1,.35.12L8,8A.18.18,0,0,1,7.77,8.13Zm9,0H12V5.74a.47.47,0,0,1,.47-.48l1.34-1a1,1,0,0,1,1.15,0l1.34,1a.47.47,0,0,1,.48.48Zm4-.16-.53-3.91a.19.19,0,0,1,.35-.12l2.23,3.91a.18.18,0,0,1-.16.28h-1.7A.19.19,0,0,1,20.74,8Z"/><path class="cls-1" d="M14.35,12a.47.47,0,0,0-.48.47v1.92a.48.48,0,0,0,.48.48.49.49,0,0,0,.48-.48V12.43A.48.48,0,0,0,14.35,12Z"/></g></g></svg>