<svg xmlns="http://www.w3.org/2000/svg" viewBox="0 0 88.95 27.74"><defs><style>.cls-1{fill:#272626;}</style></defs><g id="Layer_2" data-name="Layer 2"><g id="Layer_1-2" data-name="Layer 1"><polygon class="cls-1" points="0 0 0 2.87 18.17 2.87 18.17 0 16.26 0 15.3 0.96 14.35 0.96 13.39 0 10.52 0 9.56 0.96 8.61 0.96 7.65 0 4.78 0 3.83 0.96 2.87 0.96 1.91 0 0 0"/><polygon class="cls-1" points="33.48 10.04 33.48 12.91 14.35 12.91 14.35 10.04 16.74 10.04 17.69 11 18.65 11 19.61 10.04 22.48 10.04 23.43 11 24.39 11 25.35 10.04 28.22 10.04 29.17 11 30.13 11 31.09 10.04 33.48 10.04"/><polygon class="cls-1" points="54.52 10.04 54.52 12.91 73.65 12.91 73.65 10.04 71.26 10.04 70.3 11 69.34 11 68.39 10.04 65.52 10.04 64.56 11 63.6 11 62.65 10.04 59.78 10.04 58.82 11 57.87 11 56.91 10.04 54.52 10.04"/><path class="cls-1" d="M14.35,6.7l1.91-1.92v-1H14.35v1h-1v-1H11.48v1h-1v-1H8.61v1h-1v-1H5.74v1h-1v-1H2.87v1h-1v-1H0v1L1.91,6.7V21L1,23v2.86H15.3V23l-1-1.92ZM9.56,13.39H6.7V9.8a1.43,1.43,0,1,1,2.86,0Z"/><polygon class="cls-1" points="70.78 0 70.78 2.87 88.95 2.87 88.95 0 87.04 0 86.08 0.96 85.13 0.96 84.17 0 81.3 0 80.34 0.96 79.39 0.96 78.43 0 75.56 0 74.6 0.96 73.65 0.96 72.69 0 70.78 0"/><path class="cls-1" d="M86.08,6.7,88,4.78v-1H86.08v1h-1v-1H83.21v1h-.95v-1H80.34v1h-1v-1H77.47v1h-1v-1H74.6v1h-.95v-1H71.73v1L73.65,6.7V21l-1,1.92v2.86H87V23l-1-1.92ZM81.3,13.39H78.43V9.8a1.44,1.44,0,0,1,2.87,0Z"/><polygon class="cls-1" points="54.04 0 53.08 0.96 52.13 0.96 51.17 0 50.21 0 48.3 0 47.34 0.96 46.39 0.96 45.43 0 42.56 0 41.61 0.96 40.65 0.96 39.69 0 36.82 0 35.87 0.96 34.91 0.96 33.95 0 31.56 0 31.56 2.87 50.21 2.87 51.17 2.87 56.43 2.87 56.43 0 54.04 0"/><path class="cls-1" d="M56.43,4.78v-1H54.52v1h-1v-1H51.65v1h-1v-1H48.78v1h-1v-1H45.91v1H45v-1H43v1h-1v-1H40.17v1h-1v-1H37.3v1h-.95v-1H34.43v1h-1v-1H31.56v1L33.48,6.7V21l-1,1.92v2.86h6.69V19.61a4.79,4.79,0,0,1,9.57,0v6.21h6.69V23L54.52,21V6.7ZM40.65,12.67H37.78V9.09a1.44,1.44,0,1,1,2.87,0Zm9.56,0H47.34V9.09a1.44,1.44,0,1,1,2.87,0Z"/><polygon class="cls-1" points="30.13 14.35 30.13 15.78 29.17 15.78 29.17 14.35 27.26 14.35 27.26 15.78 26.3 15.78 26.3 14.35 24.39 14.35 24.39 15.78 23.43 15.78 23.43 14.35 21.52 14.35 21.52 15.78 20.56 15.78 20.56 14.35 18.65 14.35 18.65 15.78 17.69 15.78 17.69 14.35 15.78 14.35 15.78 20.7 16.74 22.62 16.74 25.82 31.09 25.82 31.09 22.62 32.04 20.7 32.04 14.35 30.13 14.35"/><polygon class="cls-1" points="70.3 14.35 70.3 15.78 69.34 15.78 69.34 14.35 67.43 14.35 67.43 15.78 66.47 15.78 66.47 14.35 64.56 14.35 64.56 15.78 63.6 15.78 63.6 14.35 61.69 14.35 61.69 15.78 60.73 15.78 60.73 14.35 58.82 14.35 58.82 15.78 57.87 15.78 57.87 14.35 55.95 14.35 55.95 20.7 56.91 22.62 56.91 25.82 71.26 25.82 71.26 22.62 72.21 20.7 72.21 14.35 70.3 14.35"/><rect class="cls-1" x="42.08" y="25.35" width="3.83" height="0.48"/><rect class="cls-1" x="39.21" y="26.78" width="9.56" height="0.96"/></g></g></svg>