<svg xmlns="http://www.w3.org/2000/svg" viewBox="0 0 28.69 28.69"><defs><style>.cls-1{fill:#272626;}</style></defs><g id="Layer_2" data-name="Layer 2"><g id="Layer_1-2" data-name="Layer 1"><polygon class="cls-1" points="0 28.69 5.74 28.69 5.74 22 2.87 22 0 28.69"/><polygon class="cls-1" points="25.82 22 22.95 22 22.95 28.69 28.69 28.69 25.82 22"/><rect class="cls-1" x="2.87" y="16.26" width="2.87" height="4.78"/><rect class="cls-1" x="22.96" y="16.26" width="2.87" height="4.78"/><path class="cls-1" d="M7.65,15.3V28.69h2.87V16.26l3.83-3.83,3.82,3.83V28.69H21V15.3L14.35,8.61ZM15.3,11a1,1,0,1,1-1-1A1,1,0,0,1,15.3,11Z"/><polygon class="cls-1" points="22.95 15.3 25.82 15.3 25.82 9.56 24.39 13.39 22.95 13.39 14.77 5.2 14.77 2.51 16.02 2.51 16.02 1.67 14.77 1.67 14.77 0 13.93 0 13.93 1.67 12.67 1.67 12.67 2.51 13.93 2.51 13.93 5.2 5.74 13.39 4.3 13.39 2.87 9.56 2.87 15.3 5.74 15.3 14.35 6.7 22.95 15.3"/></g></g></svg>