<svg xmlns="http://www.w3.org/2000/svg" viewBox="0 0 23.61 19.83"><defs><style>.cls-1{fill:#272626;}</style></defs><g id="Layer_2" data-name="Layer 2"><g id="Layer_1-2" data-name="Layer 1"><path class="cls-1" d="M20,10.34c-.16-1.61-4.14-3.76-4.14-3.76L14,15.83h-.84L10.82,0H8.45S4.93,2.07,4.93,3.22,6.76,19.83,6.76,19.83H18.09S20.16,11.94,20,10.34ZM10.2,2.62l-.6,1.2H6l4.2-3ZM18,11l-1.8-.6V8l3,2.4Z"/><path class="cls-1" d="M22.1,15.29,20,16.89l-.29,2.94h3.19l.69-3.7Zm-.51,2.92L21,17l1.2-1.2.6,1.2Z"/><path class="cls-1" d="M3.6,11.43H1.2l-1.2,3,1.2,5.4H4.8ZM2.4,15l-1.2-.6L2.4,12l.6,1.2Z"/></g></g></svg>