<svg xmlns="http://www.w3.org/2000/svg" viewBox="0 0 22.59 28.69"><defs><style>.cls-1{fill:#272626;}</style></defs><g id="Layer_2" data-name="Layer 2"><g id="Layer_1-2" data-name="Layer 1"><path class="cls-1" d="M12.85,16.92s-6.6-6.55-6.6-12.06C6.25,4.86.1,2.28.1,0c0,0-1.93,8.09,11,19Z"/><rect class="cls-1" x="14.54" y="21.36" width="2.91" height="1.46" transform="translate(-10.94 17.78) rotate(-45)"/><rect class="cls-1" x="16.02" y="22.85" width="2.91" height="1.46" transform="translate(-11.55 19.26) rotate(-45)"/><rect class="cls-1" x="17.51" y="24.34" width="2.91" height="1.46" transform="translate(-12.17 20.75) rotate(-45)"/><path class="cls-1" d="M22.4,25.2c-.46-.45-1.57-.08-2.48.83s-1.28,2-.82,2.47,1.56.08,2.47-.83S22.85,25.66,22.4,25.2Z"/><path class="cls-1" d="M15,18.88l2.49-2.49-1.23-1.23-3.66,3.66a1.73,1.73,0,0,0-.5,1.85l-1.9,1.91,1.23,1.23,3.07-3.08A1.73,1.73,0,0,0,15,18.88Z"/></g></g></svg>