<svg xmlns="http://www.w3.org/2000/svg" viewBox="0 0 26.78 22.96"><defs><style>.cls-1{fill:#272626;}</style></defs><g id="Layer_2" data-name="Layer 2"><g id="Layer_1-2" data-name="Layer 1"><path class="cls-1" d="M26.78,13.29v-.48H25.11V11.6h-.48v1.21h-.24V7.25h1.43l-1.91-5.8H22.48V0H20.09V1.45H11L9.09,7.25H10v5.56H9.8V11.6H9.33v1.21H2.15V11.6H1.67v1.21H0v.48H1.67v7.49A1.68,1.68,0,0,1,0,22.47V23a2.15,2.15,0,0,0,1.91-1.2A2.17,2.17,0,0,0,3.83,23a2.17,2.17,0,0,0,1.91-1.2,2.12,2.12,0,0,0,3.82,0A2.17,2.17,0,0,0,11.48,23a2.15,2.15,0,0,0,1.91-1.2,2.13,2.13,0,0,0,3.83,0,2.12,2.12,0,0,0,3.82,0,2.13,2.13,0,0,0,3.83,0A2.15,2.15,0,0,0,26.78,23v-.49a1.68,1.68,0,0,1-1.67-1.69V13.29Zm-7.17-2.17V8.22a1,1,0,1,1,1.91,0v2.9Zm.95-7L23.43,7H22l-1.4-1.59L19.17,7H17.69Zm-6.69,0L16.74,7H15.26L13.87,5.42,12.48,7H11Zm1,4.11v2.9H12.91V8.22a1,1,0,1,1,1.92,0ZM17,13.29v.11l-3.59,2.5L9.8,13.4v-.11Zm.48.7,3.16,2.2-3.16,2.2ZM17,18.39l-3.17-2.2L17,14ZM9.8,14,13,16.19,9.8,18.39Zm-.47,4.4-3.17-2.2L9.33,14Zm0-5.1v.11L5.74,15.9,2.15,13.4v-.11ZM2.15,14l3.17,2.2-3.17,2.2Zm5.5,8.48A1.68,1.68,0,0,1,6,20.78H5.5a1.68,1.68,0,1,1-3.35,0V19l3.59-2.49L9.33,19v1.81A1.69,1.69,0,0,1,7.65,22.47Zm7.65,0a1.68,1.68,0,0,1-1.67-1.69h-.48a1.68,1.68,0,1,1-3.35,0V19l3.59-2.49L17,19v1.81A1.69,1.69,0,0,1,15.3,22.47Zm7.66,0a1.69,1.69,0,0,1-1.68-1.69H20.8a1.67,1.67,0,1,1-3.34,0V19L21,16.48,24.63,19v1.81A1.68,1.68,0,0,1,23,22.47Zm1.67-4.08-3.17-2.2L24.63,14Zm0-5L21,15.9l-3.58-2.5v-.11h7.17Z"/></g></g></svg>