<svg xmlns="http://www.w3.org/2000/svg" viewBox="0 0 23.91 25.35"><defs><style>.cls-1{fill:#272626;}</style></defs><g id="Layer_2" data-name="Layer 2"><g id="Layer_1-2" data-name="Layer 1"><rect class="cls-1" y="12.91" width="4.3" height="8.13" rx="0.98"/><path class="cls-1" d="M3.27,5.29A.84.84,0,0,0,2.12,5.1C.3,6.7.11,9.32.38,11.14c.06.44.4.61.93.61l2,0a.75.75,0,0,0,.58-.8,9.8,9.8,0,0,1,.54-3.66.75.75,0,0,0,.06-.8Z"/><rect class="cls-1" y="22.48" width="4.3" height="2.87" rx="0.88"/><rect class="cls-1" x="19.61" y="12.91" width="4.3" height="8.13" rx="0.98"/><path class="cls-1" d="M19.85,11c0,.37.21.8.58.8l2.17,0c.46,0,.87-.17.93-.61.27-1.82.08-4.44-1.74-6-.35-.31-.81-.15-1.15.19L19.3,6.74a.73.73,0,0,0,.06.79A8.66,8.66,0,0,1,19.85,11Z"/><path class="cls-1" d="M7.83,1.33a.76.76,0,0,0-1-.53A12.3,12.3,0,0,0,3.52,2.88.75.75,0,0,0,3.48,4L5.12,5.63a.74.74,0,0,0,1,0A9,9,0,0,1,8,4.46a.76.76,0,0,0,.43-.87Z"/><path class="cls-1" d="M20.33,2.88A12.14,12.14,0,0,0,17,.8a.76.76,0,0,0-1,.53l-.57,2.26a.76.76,0,0,0,.43.87,9,9,0,0,1,1.84,1.22.74.74,0,0,0,1,0L20.37,4A.75.75,0,0,0,20.33,2.88Z"/><path class="cls-1" d="M13.62,0H10.23a.71.71,0,0,0-.7.7V3.13a.71.71,0,0,0,.7.7h3.39a.71.71,0,0,0,.7-.7V.7A.71.71,0,0,0,13.62,0Z"/><rect class="cls-1" x="19.61" y="22.48" width="4.3" height="2.87" rx="0.88"/><path class="cls-1" d="M11.77,5.74a5.91,5.91,0,0,0-5.58,6V23.66a.73.73,0,0,0,.72.73h10a.73.73,0,0,0,.72-.73V11.48A5.74,5.74,0,0,0,11.77,5.74Z"/></g></g></svg>