<svg xmlns="http://www.w3.org/2000/svg" viewBox="0 0 27.74 24.5"><defs><style>.cls-1{fill:#272626;}</style></defs><g id="Layer_2" data-name="Layer 2"><g id="Layer_1-2" data-name="Layer 1"><path class="cls-1" d="M19.13,3.93V5.85H17.69V3.93H15.78V5.85H14.23V1.4h.43s.58,0,.68.36c0,.06.06.11.12.11h1.22a.14.14,0,0,0,.1-.05l.51-.68a.13.13,0,0,0-.1-.2h-.84a.12.12,0,0,1-.1,0,.84.84,0,0,0-.67-.41H14.23V0h-.72V5.85H12V3.93H10V5.85H8.61V3.93H7.17V13H20.56V3.93Zm-6.94,6.7H9.8V8a1.2,1.2,0,1,1,2.39,0Zm2.87,0H12.67V8a1.2,1.2,0,1,1,2.39,0Zm2.87,0H15.54V8a1.2,1.2,0,1,1,2.39,0Z"/><path class="cls-1" d="M25.82,14v1.43H24.39V14H23v1.43H21.52V14H20.09v1.43h-1V14H17.69v1.43H15.78V14h-.95v1.43H12.91V14H12v1.43H10V14H8.61v1.43h-1V14H6.22v1.43H4.78V14H3.35v1.43H1.91V14H0v3.34l1.43,1.44L1.36,24.5h9.16V21.15a3.35,3.35,0,0,1,6.7,0V24.5h9l.07-5.74,1.44-1.44V14Z"/></g></g></svg>