<svg xmlns="http://www.w3.org/2000/svg" viewBox="0 0 28.69 28.69"><defs><style>.cls-1{fill:#272626;}</style></defs><g id="Layer_2" data-name="Layer 2"><g id="Layer_1-2" data-name="Layer 1"><rect class="cls-1" y="27.86" width="12.43" height="0.83"/><path class="cls-1" d="M6.7,13.79V12.43H8.13v-.95H6.7V9.56h-1v1.92H4.3v.95H5.74v1.36C3,14,.83,15.75.83,17.92V27H11.61V17.92C11.61,15.75,9.45,14,6.7,13.79Zm-.48,2.47a1.66,1.66,0,1,1-1.66,1.66A1.65,1.65,0,0,1,6.22,16.26ZM10,23.72H2.49V22.06H10Z"/><rect class="cls-1" x="16.26" y="18.3" width="12.43" height="0.83"/><path class="cls-1" d="M23,4.23V2.87h1.43v-1H23V0H22V1.91H20.56v1H22V4.23c-2.75.18-4.91,2-4.91,4.12v9.12H27.86V8.35C27.86,6.19,25.71,4.41,23,4.23ZM22.48,6.7a1.66,1.66,0,1,1-1.66,1.65A1.65,1.65,0,0,1,22.48,6.7Zm3.73,7.46H18.75V12.5h7.46Z"/></g></g></svg>