<svg xmlns="http://www.w3.org/2000/svg" viewBox="0 0 18.17 27.74"><defs><style>.cls-1{fill:#272626;}</style></defs><g id="Layer_2" data-name="Layer 2"><g id="Layer_1-2" data-name="Layer 1"><path class="cls-1" d="M7.17,25.82a1.92,1.92,0,1,0,3.83,0v-.95H7.17Z"/><rect class="cls-1" x="8.13" y="19.13" width="1.91" height="4.78"/><rect class="cls-1" x="8.13" y="11.48" width="1.91" height="6.22"/><rect class="cls-1" x="6.22" y="2.39" width="5.74" height="7.65"/><polygon class="cls-1" points="0 3.35 0 6.22 0 9.09 0.48 9.56 1.44 9.56 1.44 6.22 1.44 2.87 0.48 2.87 0 3.35"/><polygon class="cls-1" points="17.69 3.35 16.74 3.35 16.74 6.7 16.74 10.04 17.69 10.04 18.17 9.56 18.17 6.7 18.17 3.83 17.69 3.35"/><polygon class="cls-1" points="2.39 1.91 2.39 10.52 4.3 10.52 4.78 10.04 4.78 2.39 4.3 1.91 2.39 1.91"/><polygon class="cls-1" points="13.39 2.39 13.39 10.04 13.87 10.52 15.78 10.52 15.78 1.91 13.87 1.91 13.39 2.39"/><path class="cls-1" d="M10.52,1.43a1.44,1.44,0,0,0-2.87,0v.48h2.87Z"/></g></g></svg>