<svg xmlns="http://www.w3.org/2000/svg" viewBox="0 0 27.26 28.69"><defs><style>.cls-1{fill:#272626;}</style></defs><g id="Layer_2" data-name="Layer 2"><g id="Layer_1-2" data-name="Layer 1"><path class="cls-1" d="M27.17,18.45l-.05-.05c-5.68-3.79-5.33-6.71-5.22-7.21a.14.14,0,0,0,0-.14L16.76,4.93a.16.16,0,0,1,0-.15L17.64.2a.17.17,0,0,0-.29-.15L13.61,3.78a.16.16,0,0,1-.1.05C.63,4.86,0,17.18,0,18.33a.16.16,0,0,0,.08.14L15.39,28.66a.17.17,0,0,0,.27-.14V17.37c0-1.94,7.29,4.3,8.25,5.13a.18.18,0,0,0,.22,0C27.78,19.74,27.29,18.63,27.17,18.45Zm-6.32-6.3a3.47,3.47,0,0,1-1.73.89.19.19,0,0,1-.21-.19V10.39a.19.19,0,0,1,.32-.14l1.62,1.62A.19.19,0,0,1,20.85,12.15Z"/></g></g></svg>