<svg xmlns="http://www.w3.org/2000/svg" viewBox="0 0 26.44 28.61"><defs><style>.cls-1{fill:#272626;}</style></defs><g id="Layer_2" data-name="Layer 2"><g id="Layer_1-2" data-name="Layer 1"><path class="cls-1" d="M22.29,3.56A12.82,12.82,0,0,0,13.22,0,12.82,12.82,0,0,0,4.15,3.56C-3,10.56,1.1,21.31,2,23.41a7,7,0,0,1,.63,2.66,2.54,2.54,0,0,0,5.08,0,11.87,11.87,0,0,0-1.07-4.69c-.41-.95-3.87-9.41,1-14.17a7.62,7.62,0,0,1,5.53-2.14,7.62,7.62,0,0,1,5.53,2.14c4.9,4.76,1.44,13.22,1,14.17a11.87,11.87,0,0,0-1.07,4.69,2.54,2.54,0,0,0,5.08,0,6.8,6.8,0,0,1,.64-2.66C25.34,21.31,29.48,10.56,22.29,3.56ZM3.2,8.71a1,1,0,1,1-1,1A1,1,0,0,1,3.2,8.71Zm-1.66,5.2a1,1,0,1,1,1,1A1,1,0,0,1,1.54,13.91ZM3,19.33a1,1,0,0,1-1-1,1,1,0,0,1,2,0A1,1,0,0,1,3,19.33Zm2.14,5.74a1,1,0,1,1,0,2,1,1,0,0,1,0-2ZM5.23,7.14a1,1,0,1,1,1-1A1,1,0,0,1,5.23,7.14Zm18,1.57a1,1,0,1,1-1,1A1,1,0,0,1,23.24,8.71Zm-2-1.57a1,1,0,1,1,0-2,1,1,0,0,1,0,2Zm.05,20a1,1,0,1,1,0-2,1,1,0,0,1,0,2Zm2.14-7.77a1,1,0,0,1-1-1,1,1,0,0,1,2,0A1,1,0,0,1,23.4,19.33Zm.49-4.41a1,1,0,1,1,1-1A1,1,0,0,1,23.89,14.92Z"/></g></g></svg>