<svg xmlns="http://www.w3.org/2000/svg" viewBox="0 0 23.91 28.47"><defs><style>.cls-1{fill:#272626;}</style></defs><g id="Layer_2" data-name="Layer 2"><g id="Layer_1-2" data-name="Layer 1"><rect class="cls-1" y="20.82" width="23.91" height="1.91"/><rect class="cls-1" x="2.87" y="22.74" width="1.91" height="5.74"/><rect class="cls-1" x="19.13" y="22.74" width="1.91" height="5.74"/><rect class="cls-1" x="10.52" y="22.74" width="2.87" height="5.74"/><polygon class="cls-1" points="20.09 11.5 20.09 19.87 14.82 19.87 14.82 12.69 11.96 9.82 9.09 12.69 9.09 19.87 3.83 19.87 3.83 11.5 11.96 3.37 20.09 11.5"/><rect class="cls-1" x="7.17" y="20.72" width="0.96" height="7.85" transform="translate(-17.1 17.34) rotate(-56.31)"/><rect class="cls-1" x="12.33" y="24.17" width="7.85" height="0.96" transform="translate(-10.94 13.16) rotate(-33.69)"/><rect class="cls-1" x="-0.4" y="5.44" width="15.78" height="0.96" transform="translate(-1.99 7.03) rotate(-45)"/><rect class="cls-1" x="16" y="-1.97" width="0.96" height="15.78" transform="translate(0.64 13.39) rotate(-45)"/></g></g></svg>