<svg xmlns="http://www.w3.org/2000/svg" viewBox="0 0 24.87 25.82"><defs><style>.cls-1{fill:#272626;}</style></defs><g id="Layer_2" data-name="Layer 2"><g id="Layer_1-2" data-name="Layer 1"><polygon class="cls-1" points="22.48 0 21.52 0.96 20.56 0.96 19.61 0 18.65 0 16.74 0 15.78 0.96 14.82 0.96 13.87 0 11 0 10.04 0.96 9.09 0.96 8.13 0 5.26 0 4.3 0.96 3.35 0.96 2.39 0 0 0 0 2.87 18.65 2.87 19.61 2.87 24.87 2.87 24.87 0 22.48 0"/><path class="cls-1" d="M24.87,4.78v-1H23v1H22v-1H20.09v1h-1v-1H17.22v1h-1v-1H14.35v1h-1v-1H11.48v1h-1v-1H8.61v1h-1v-1H5.74v1h-1v-1H2.87v1h-1v-1H0v1L1.91,6.7V21L1,23v2.86H7.65V19.61a4.79,4.79,0,0,1,9.57,0v6.21h6.69V23L23,21V6.7ZM9.09,12.67H6.22V9.09a1.44,1.44,0,1,1,2.87,0Zm9.56,0H15.78V9.09a1.44,1.44,0,1,1,2.87,0Z"/></g></g></svg>