<svg xmlns="http://www.w3.org/2000/svg" viewBox="0 0 11.48 26.78"><defs><style>.cls-1{fill:#272626;}</style></defs><g id="Layer_2" data-name="Layer 2"><g id="Layer_1-2" data-name="Layer 1"><path class="cls-1" d="M0,8.61v.48l1.43,1.43H10l1.44-1.43V8.61Z"/><path class="cls-1" d="M6,0h-.5c0,1.85-3.08,4.3-5,4.3v.48l1,.48h.75V8.61h.52l1-2.18V8.61h.61l1.4-1.34,1.4,1.34h.6V6.43l1,2.18h.53V5.26H10l1-.48V4.3C9.07,4.3,6,1.85,6,0ZM2.73,7.44V5.26h1ZM4.24,8V5.83l1.15,1.1Zm.1-2.77h2.8L5.74,6.6ZM7.24,8,6.09,6.93l1.15-1.1Zm1.5-.59-1-2.18h1Z"/><path class="cls-1" d="M10,25.82,9.09,11.48H2.39l-1,14.34h2.4V22a1.91,1.91,0,0,1,3.82,0v3.82Zm-4.3-10a1,1,0,1,1,1-.95A1,1,0,0,1,5.74,15.78Z"/><rect class="cls-1" x="4.06" y="26.3" width="3.35" height="0.48"/></g></g></svg>