<svg xmlns="http://www.w3.org/2000/svg" viewBox="0 0 19.82 28.69"><defs><style>.cls-1{fill:#272626;}</style></defs><g id="Layer_2" data-name="Layer 2"><g id="Layer_1-2" data-name="Layer 1"><path class="cls-1" d="M13.33,9c-1.47-.06-2.95.31-4.43.36A8.19,8.19,0,0,1,5.31,9,3,3,0,0,1,3.89,6.54,4,4,0,0,1,6.05,4.26c.44-.19,1.42.82,2.14,1.31a7.16,7.16,0,0,0,1.54,1.1c2,.69,4.14,1.21,6.18,1.91,1.6.54,1.91-.16,1.85-1.1l-5.6-1.1c1.59-2.08,3.3-2.3,4.72-.8l-.61,1L17.21,6l2.61-3.06C14.9-.21,10-.53,4.9.59A6.28,6.28,0,0,0,.06,7.69c.52,3.7,3.6,5.91,7.85,5.54,1.56-.14,3.11-.59,4.67-.64a2.64,2.64,0,0,1,3,2.62c.06,2-1.31,2.76-3.09,2.82-.81,0-1.63-.32-2.45-.34a16.62,16.62,0,0,0-4.41.12C2.27,18.65.53,21.1.86,24.09c.31,2.83,2.33,4.36,6.8,4.6-1.42-.65-2.44-.8-2.84-1.37C4,26.13,3,24.7,3,23.4c.07-1.72,1.72-2.52,3.49-2.45.9,0,1.79.35,2.69.41a21.92,21.92,0,0,0,5.17.13,6.27,6.27,0,0,0,5.07-6.72A6.4,6.4,0,0,0,13.33,9ZM12.6,1.1c1.88,0,3.78,2,3.78,2H12.6Z"/></g></g></svg>