<svg xmlns="http://www.w3.org/2000/svg" viewBox="0 0 27.74 26.78"><defs><style>.cls-1{fill:#272626;}</style></defs><g id="Layer_2" data-name="Layer 2"><g id="Layer_1-2" data-name="Layer 1"><path class="cls-1" d="M17.69,17.22A4.78,4.78,0,1,0,22.48,22,4.79,4.79,0,0,0,17.69,17.22Zm3.81,4.54H19.11a1.49,1.49,0,0,0-.25-.59l1.69-1.69A3.81,3.81,0,0,1,21.5,21.76Zm-3-.93a1.34,1.34,0,0,0-.59-.24V18.2a3.75,3.75,0,0,1,2.28.94Zm-1.06-.24a1.34,1.34,0,0,0-.59.24l-1.69-1.69a3.75,3.75,0,0,1,2.28-.94Zm-.59,2.58a1.47,1.47,0,0,0,.59.24V25.8a3.75,3.75,0,0,1-2.28-.94Zm1.06.24a1.47,1.47,0,0,0,.59-.24l1.69,1.69a3.75,3.75,0,0,1-2.28.94Zm-3.09-3.93,1.69,1.69a1.36,1.36,0,0,0-.25.59H13.89A3.81,3.81,0,0,1,14.84,19.48Zm-.95,2.76h2.39a1.36,1.36,0,0,0,.25.59l-1.69,1.69A3.81,3.81,0,0,1,13.89,22.24Zm6.66,2.28-1.69-1.69a1.49,1.49,0,0,0,.25-.59H21.5A3.81,3.81,0,0,1,20.55,24.52Z"/><path class="cls-1" d="M26.3,2.87H23.91V0H22V2.87H10.52L8.61,9.09H3.35L1.43,15.3v2.87l1,.48V23h-1v.95H0v1.91H13.43A5.64,5.64,0,0,1,12,22a5.74,5.74,0,1,1,10,3.82h3.86V18.65l1-1V11.48l1-1.44V7.65ZM7.17,21H5.26V18.65a1,1,0,1,1,1.91,0Zm.67-3.35L6.22,15.87,4.59,17.69H2.87l3.35-3.34,3.34,3.34Zm6.51-2.39H12.43V12.91a1,1,0,0,1,1.92,0ZM15,11.48,13.39,9.65l-1.62,1.83H10l3.35-3.35,3.35,3.35ZM23,15.3H21V12.91a1,1,0,0,1,1.92,0Zm.66-3.82L22,9.65l-1.63,1.83H18.65L22,8.13l3.35,3.35Z"/></g></g></svg>