<svg xmlns="http://www.w3.org/2000/svg" viewBox="0 0 27.74 25.82"><defs><style>.cls-1{fill:#272626;}</style></defs><g id="Layer_2" data-name="Layer 2"><g id="Layer_1-2" data-name="Layer 1"><path class="cls-1" d="M26.3,2.87H23.91V0H22V2.87H10.52L8.61,9.09H3.35L1.43,15.3v2.87l1,.48V23h-1v.95H0v1.91H25.82V18.65l1-1V11.48l1-1.44V7.65ZM7.17,21H5.26V18.65a1,1,0,1,1,1.91,0Zm.67-3.35L6.22,15.87,4.59,17.69H2.87l3.35-3.34,3.34,3.34ZM10,11.48l3.35-3.35,3.35,3.35H15L13.39,9.65l-1.63,1.83Zm2.39,1.43a1,1,0,0,1,1.92,0V15.3H12.43ZM15.3,22H13.39V18.17a1,1,0,0,1,1.91,0Zm2.87,0H16.26V18.17a1,1,0,0,1,1.91,0ZM21,22H19.13V18.17a1,1,0,0,1,1.91,0ZM23,15.3H21V12.91a1,1,0,0,1,1.92,0Zm.66-3.82L22,9.65l-1.63,1.83H18.65L22,8.13l3.35,3.35Z"/></g></g></svg>