<svg xmlns="http://www.w3.org/2000/svg" viewBox="0 0 23.34 20.83"><defs><style>.cls-1{fill:#272626;}</style></defs><g id="Layer_2" data-name="Layer 2"><g id="Layer_1-2" data-name="Layer 1"><path class="cls-1" d="M20.73,19.56,6.9,5.71,12.38.12,12.26,0A21.11,21.11,0,0,0,8,2.29c-.61.42-1.14.91-1.71,1.37s-1,1-1.58,1.48-1,1-1.48,1.59-.94,1.09-1.36,1.7A16.91,16.91,0,0,0,0,12.27l.12.12L5.7,6.91,19.54,20.75Z"/><polygon class="cls-1" points="23.34 8.35 18.9 3.91 14.67 3.91 14.04 4.54 16.61 7.12 4.11 19.63 5.3 20.83 17.81 8.31 20.59 11.1 23.34 8.35"/></g></g></svg>