<svg xmlns="http://www.w3.org/2000/svg" viewBox="0 0 26.43 19.37"><defs><style>.cls-1{fill:#272626;}</style></defs><g id="Layer_2" data-name="Layer 2"><g id="Layer_1-2" data-name="Layer 1"><path class="cls-1" d="M3.74,17.62a.28.28,0,0,1-.14-.46,4.8,4.8,0,0,1,2.26-1.55s1.91-.48,1.44,1c0,0-.49.85-1,.95A5,5,0,0,1,3.74,17.62Z"/><path class="cls-1" d="M0,13.32s.1-1.26,1.26-1.18,2.83,0,2.91.94S2.1,14,.63,13.77C.63,13.77,0,13.63,0,13.32Z"/><path class="cls-1" d="M3.71,8.82s-.61.92.71,1,2.86-.24,3-.49,0-3-.54-3S3.85,8.39,3.71,8.82Z"/><path class="cls-1" d="M11.11,19.09a.42.42,0,0,1-.27-.5c.21-1,.89-3.44,2.25-3.3,1.67.19,2.07,3.33,2.07,3.67S12.75,19.64,11.11,19.09Z"/><path class="cls-1" d="M23,16.52s.79,1,0,1.09-3.73.08-3.73-.28-.09-2.17,1-2A5.08,5.08,0,0,1,23,16.52Z"/><path class="cls-1" d="M23.15,12.05s-2,1,.24,1.54,2.88-.22,3-.72S24.19,11.32,23.15,12.05Z"/><path class="cls-1" d="M18.71,9.45a.55.55,0,0,1-.19-.75c.31-.49,1-1.38,1.69-1.46,1-.13,3.3.16,3.62,1.79C24.11,10.42,20,10.2,18.71,9.45Z"/><path class="cls-1" d="M14.33.69a1.1,1.1,0,0,0-1.4-.63c-.82.29-2,.9-2.23,2-.27,1.71-1.21,8.79.13,10.28s5.43,1.35,6.25-.22.13-7.9-.61-8.43-1.13.88-1.43.92S14.88,2.11,14.33.69Z"/></g></g></svg>