<svg xmlns="http://www.w3.org/2000/svg" viewBox="0 0 24.87 28.69"><defs><style>.cls-1{fill:#272626;}</style></defs><g id="Layer_2" data-name="Layer 2"><g id="Layer_1-2" data-name="Layer 1"><polygon class="cls-1" points="15.33 25.35 9.59 25.35 9.35 26.3 9.59 26.3 9.83 26.3 15.09 26.3 15.33 26.3 15.56 26.3 15.33 25.35"/><polygon class="cls-1" points="14.82 22.95 10.04 22.95 9.8 23.91 10.04 23.91 10.28 23.91 14.59 23.91 14.82 23.91 15.06 23.91 14.82 22.95"/><polygon class="cls-1" points="5.74 22.95 0 25.82 0 27.74 5.74 27.74 5.74 28.69 8.13 28.69 9.56 22.95 5.74 22.95"/><rect class="cls-1" x="19.13" y="25.83" width="5.74" height="1.91"/><polygon class="cls-1" points="19.13 22.95 15.3 22.95 16.74 28.69 19.13 28.69 19.13 25.82 24.87 25.82 19.13 22.95"/><polygon class="cls-1" points="15.78 27.74 9.09 27.74 8.85 28.69 9.09 28.69 9.32 28.69 15.54 28.69 15.78 28.69 16.02 28.69 15.78 27.74"/><polygon class="cls-1" points="14.82 22 14.35 2.87 14.35 2.87 12.43 0 10.52 2.87 10.52 2.87 10.04 22 14.82 22"/></g></g></svg>