<svg xmlns="http://www.w3.org/2000/svg" viewBox="0 0 19.13 24.87"><defs><style>.cls-1{fill:#272626;}</style></defs><g id="Layer_2" data-name="Layer 2"><g id="Layer_1-2" data-name="Layer 1"><path class="cls-1" d="M9.56,19.46c1.07,0,1.92-.52,1.92-1.56v-.47h.9c0,.24-.08.49-.1.76a.63.63,0,0,0,.42.18c.35,0,.66-.34.9-.94a7.53,7.53,0,0,0,.48-2.16,4,4,0,0,1,.86,2.16,10.84,10.84,0,0,1,.15,1.69.49.49,0,0,1-.14.34l-2.42,2.48L9.73,24.8a.25.25,0,0,1-.34,0L6.6,21.94,4.18,19.46A.49.49,0,0,1,4,19.12a10.84,10.84,0,0,1,.15-1.69,4,4,0,0,1,.86-2.16,7.53,7.53,0,0,0,.48,2.16c.24.6.55.94.9.94a.65.65,0,0,0,.42-.18c0-.27-.06-.52-.1-.76h.9v.47C7.65,18.94,8.5,19.46,9.56,19.46Z"/><path class="cls-1" d="M18.65,3.77,15.7,6.68a.24.24,0,0,1-.4-.17V4.6a.92.92,0,0,0-.67-.91,2.44,2.44,0,0,1-1.4-.88,1.52,1.52,0,0,1-.3-1.17l0-.19A4.17,4.17,0,0,0,9.56,0,4.16,4.16,0,0,0,6.24,1.45l0,.19a1.52,1.52,0,0,1-.3,1.17,2.43,2.43,0,0,1-1.41.88.92.92,0,0,0-.66.91V6.51a.25.25,0,0,1-.41.17L.48,3.77H0V6.2a1,1,0,0,0,.28.67l3.07,3H4.79a1.43,1.43,0,0,1,1.43,1.43v4a.23.23,0,0,0,.22.23A2.11,2.11,0,0,1,7.65,16a2.28,2.28,0,0,1,.48.94s0-1.41.48-1.41,1,1.41,1,1.41.48-1.41,1-1.41S11,17,11,17a2.28,2.28,0,0,1,.48-.94,2.11,2.11,0,0,1,1.21-.46.23.23,0,0,0,.22-.23v-4a1.43,1.43,0,0,1,1.43-1.43h1.44l3.07-3a1,1,0,0,0,.28-.67V3.77ZM3.35,7.84v.64L1,6.13v-.8L3.35,7.68Zm4.78-.3L7.17,9,4.78,7.07A3.27,3.27,0,0,1,6.22,5.18c0,1.42,1.91,1.89,1.91,1.89Zm1.43,3.77c-.39,0-.71-.85-.71-1.89s.32-1.88.71-1.88.72.84.72,1.88S10,11.31,9.56,11.31ZM12,9,11,7.54V7.07s1.91-.47,1.91-1.89a3.27,3.27,0,0,1,1.44,1.89Zm6.21-2.83-.48.47h0L15.78,8.48h0v-.8l2.39-2.36Z"/></g></g></svg>