<svg xmlns="http://www.w3.org/2000/svg" viewBox="0 0 27.74 16.26"><defs><style>.cls-1{fill:#272626;}</style></defs><g id="Layer_2" data-name="Layer 2"><g id="Layer_1-2" data-name="Layer 1"><path class="cls-1" d="M21,7.17v.48H16.68C16,5.07,15.05,2.87,13.87,2.87s-2.12,2.2-2.81,4.78H6.7V7.17L13.87,0Z"/><path class="cls-1" d="M10.81,8.61a67.58,67.58,0,0,0-1.25,7.17H7.65v-.95H0V13.39L4.3,8.61Z"/><path class="cls-1" d="M27.74,13.39v1.44H20.09v.95H18.17a66.16,66.16,0,0,0-1.24-7.17h6.5Z"/><rect class="cls-1" x="10.52" y="15.78" width="6.7" height="0.48"/><rect class="cls-1" x="10.76" y="13.55" width="6.22" height="0.48"/><rect class="cls-1" x="11.24" y="11.32" width="5.26" height="0.48"/><rect class="cls-1" x="11.72" y="9.09" width="4.3" height="0.48"/></g></g></svg>