<svg xmlns="http://www.w3.org/2000/svg" viewBox="0 0 28.69 25.82"><defs><style>.cls-1{fill:#272626;}</style></defs><g id="Layer_2" data-name="Layer 2"><g id="Layer_1-2" data-name="Layer 1"><rect class="cls-1" x="4.78" y="23.91" width="17.22" height="1.91"/><path class="cls-1" d="M28.69,22.22H28V17.94L26.6,15.77l-2.8.72L24.51,10V9.34l-.72-2.19L21,3.57H16.8L14.71,0H10.53L6.31,5.75V4.32H4.22L2.81,10v5H2.12L0,18.64v2.14L.72,23h6v-8.6a2.87,2.87,0,1,1,5.73,0V23h1.92v-8.6a2.87,2.87,0,0,1,5.74,0V23h8.6ZM13.39,11.48a2.87,2.87,0,1,1,2.87-2.87A2.88,2.88,0,0,1,13.39,11.48Z"/></g></g></svg>