<svg xmlns="http://www.w3.org/2000/svg" viewBox="0 0 22.96 27.07"><defs><style>.cls-1{fill:#272626;}</style></defs><g id="Layer_2" data-name="Layer 2"><g id="Layer_1-2" data-name="Layer 1"><rect class="cls-1" y="24.9" width="5.74" height="2.17"/><rect class="cls-1" x="8.61" y="24.9" width="5.74" height="2.17"/><rect class="cls-1" x="17.22" y="24.9" width="5.74" height="2.17"/><path class="cls-1" d="M5.74,2.17C5.74,1,4.45,0,2.87,0S0,1,0,2.17a2,2,0,0,0,1,1.6V23.82H4.78v-20A2,2,0,0,0,5.74,2.17Z"/><polygon class="cls-1" points="21.04 10.83 21.04 10.83 19.11 8.66 19.13 8.66 19.13 7.58 18.17 7.58 18.17 7.6 18.17 8.66 18.17 23.82 22 23.82 22 11.91 22 10.83 21.04 10.83"/><path class="cls-1" d="M7.65,2.17c0,.8.78,1.49,1.91,1.86V23.82h3.83V4C14.53,3.66,15.3,3,15.3,2.17L11.48,0Z"/></g></g></svg>