<svg xmlns="http://www.w3.org/2000/svg" viewBox="0 0 27.74 23.43"><defs><style>.cls-1{fill:#272626;}</style></defs><g id="Layer_2" data-name="Layer 2"><g id="Layer_1-2" data-name="Layer 1"><path class="cls-1" d="M27.74,14.83a1.92,1.92,0,1,0-3.83,0l-2.47,3.29a1.9,1.9,0,0,0-3.27-.72,1.89,1.89,0,0,0-2.87,0,1.9,1.9,0,0,0-1-.59v-2h6.21c-1.25,0-2.27-3-2.27-6.7s1-6.7,2.27-6.7H14.35V0h-1V1.43H9.19c-1.13.38-2,3.25-2,6.7s.89,6.32,2,6.7h4.2v2a1.88,1.88,0,0,0-1,.59A1.9,1.9,0,0,0,11,16.74a1.94,1.94,0,0,0-1.44.66,1.89,1.89,0,0,0-3.26.72L3.83,14.83a1.92,1.92,0,1,0-3.83,0H2.39s-1,3.82,0,5.73,1.44,2.87,3.35,2.87H22c1.91,0,2.39-.95,3.35-2.87s0-5.73,0-5.73ZM8.13,19.61a1,1,0,1,1,1-1A1,1,0,0,1,8.13,19.61Zm2.87,0a1,1,0,1,1,1-1A1,1,0,0,1,11,19.61Zm2.87,0a1,1,0,1,1,1-1A1,1,0,0,1,13.87,19.61Zm2.87,0a1,1,0,1,1,1-1A1,1,0,0,1,16.74,19.61Zm2.87,0a1,1,0,1,1,.95-1A1,1,0,0,1,19.61,19.61Z"/></g></g></svg>