<svg xmlns="http://www.w3.org/2000/svg" viewBox="0 0 26.78 23.91"><defs><style>.cls-1{fill:#272626;}</style></defs><g id="Layer_2" data-name="Layer 2"><g id="Layer_1-2" data-name="Layer 1"><rect class="cls-1" y="21.96" width="26.78" height="1.95"/><rect class="cls-1" x="7.17" y="19.03" width="12.43" height="1.95"/><path class="cls-1" d="M17.93,8.78a4.4,4.4,0,0,0-4.54-3.9,4.4,4.4,0,0,0-4.54,3.9h0v8.79h9.08V8.78Zm-4.54,6.84a1.47,1.47,0,1,1,1.44-1.47A1.45,1.45,0,0,1,13.39,15.62Zm0-4.88a1.47,1.47,0,1,1,1.44-1.47A1.45,1.45,0,0,1,13.39,10.74Z"/><polygon class="cls-1" points="5.26 3.42 3.59 0 1.91 3.42 1.44 20.98 5.74 20.98 5.26 3.42"/><polygon class="cls-1" points="24.87 3.42 23.19 0 21.52 3.42 21.04 20.98 25.35 20.98 24.87 3.42"/></g></g></svg>