<svg xmlns="http://www.w3.org/2000/svg" viewBox="0 0 20.09 26.3"><defs><style>.cls-1{fill:#272626;}</style></defs><g id="Layer_2" data-name="Layer 2"><g id="Layer_1-2" data-name="Layer 1"><path class="cls-1" d="M19.66,12.87a1,1,0,0,0,.43-.81V8.31C20.09,4.19,15.64,0,12.43,0H7.65C4.45,0,0,4.19,0,8.31v3.75a1,1,0,0,0,.42.81,2.37,2.37,0,0,1,1,2,2.4,2.4,0,0,1-1,1.94,1,1,0,0,0-.41,1,1.76,1.76,0,0,0,.36.8l.1.08c.07,0,5.25-.48,5.73,0S4.65,19.14,4.35,21a.91.91,0,0,0,.16.66l.58.88a1,1,0,0,1,.17.56v1.25a1,1,0,0,0,.2.6l.69.93a1,1,0,0,0,.55.36c0-.2,0-1.9.47-2.35s.48,1.91,1,2.39h1.2s0-2.39.47-2.39.48,2.39.48,2.39h1.2c.48-.48.48-2.87.95-2.39s.48,2.39.48,2.39h.21a1.05,1.05,0,0,0,.82-.4l.68-.93a.93.93,0,0,0,.21-.6V23.12a1,1,0,0,1,.17-.56l.57-.88a.91.91,0,0,0,.16-.66c-.29-1.88-2.3-1.93-1.86-2.37s5.65,0,5.73,0l.09-.08a1.78,1.78,0,0,0,.37-.8,1,1,0,0,0-.41-1,2.39,2.39,0,0,1,0-3.9ZM5.74,17.22c-1.44,0-2.39,0-2.39-1.92s.48-2.39,2.39-2.39H7.17s1.92,0,1.92,1.44S7.17,17.22,5.74,17.22ZM11,22V19.61a1,1,0,1,0-1.91,0V22c-1,0-1-1-1-2.87A3.54,3.54,0,0,1,10,16.26,3.55,3.55,0,0,1,12,19.13C12,21,12,22,11,22Zm3.35-4.78c-1.44,0-3.35-1.44-3.35-2.87s1.91-1.44,1.91-1.44h1.44c1.91,0,2.39.48,2.39,2.39S15.78,17.22,14.35,17.22Z"/></g></g></svg>