<svg xmlns="http://www.w3.org/2000/svg" viewBox="0 0 22.05 28.22"><defs><style>.cls-1{fill:#272626;}</style></defs><g id="Layer_2" data-name="Layer 2"><g id="Layer_1-2" data-name="Layer 1"><path class="cls-1" d="M6.72,18.17c-1.44,0-2.39,0-2.39-1.91s.48-2.39,2.39-2.39H8.15s1.92,0,1.92,1.43S8.15,18.17,6.72,18.17Z"/><path class="cls-1" d="M12,23v-2.4a1,1,0,0,0-1.91,0V23c-1,0-1-1-1-2.87A3.52,3.52,0,0,1,11,17.22a3.53,3.53,0,0,1,1.92,2.87C12.94,22,12.94,23,12,23Z"/><path class="cls-1" d="M15.33,18.17c-1.44,0-3.35-1.43-3.35-2.87s1.91-1.43,1.91-1.43h1.44c1.91,0,2.39.48,2.39,2.39S16.76,18.17,15.33,18.17Z"/><path class="cls-1" d="M22,17.24h0l-.35-.07a1.44,1.44,0,0,1,0-2.78L22,14.3v-5C22,4.58,17.1,0,13.41,0H8.63C5,0,0,4.58,0,9.27v5l.37.09a1.44,1.44,0,0,1,1.07,1.39A1.43,1.43,0,0,1,.39,17.17L0,17.24H0a4.39,4.39,0,0,0,.62,2.9,2.77,2.77,0,0,0,2.24.9h.43a1,1,0,0,1,1,1v.27a1,1,0,0,0,.17.55l.61.93a1,1,0,0,1,.17.56v1.29a1,1,0,0,0,.21.61l1.17,1.55a1,1,0,0,0,.8.41h7.12a1,1,0,0,0,.81-.41l1.17-1.55a1,1,0,0,0,.2-.61V24.36a1,1,0,0,1,.17-.56l.62-.93a1,1,0,0,0,.17-.55v-.27a1,1,0,0,1,1-1h.42a2.79,2.79,0,0,0,2.25-.9A4.36,4.36,0,0,0,22,17.24Zm-1,1.49a1.83,1.83,0,0,1-.37.8l-.09.08c-.08,0-5.25-.48-5.73,0s1.57.48,1.87,2.37a1,1,0,0,1-.17.66l-.58.87a1,1,0,0,0-.16.56v1.26a1,1,0,0,1-.21.6l-.69.93a1,1,0,0,1-.8.4h-.22s0-1.91-.48-2.39-.47,1.91-.95,2.39h-1.2s0-2.39-.48-2.39-.47,2.39-.47,2.39H9.11c-.48-.48-.48-2.87-1-2.39S7.68,27,7.68,27.22a1,1,0,0,1-.55-.36l-.69-.93a1,1,0,0,1-.2-.6V24.07a1,1,0,0,0-.17-.56l-.58-.87A.91.91,0,0,1,5.33,22c.3-1.89,2.31-1.93,1.87-2.37s-5.66,0-5.73,0l-.1-.08a1.81,1.81,0,0,1-.36-.8,1,1,0,0,1,.41-1,2.38,2.38,0,0,0,1-1.94,2.37,2.37,0,0,0-1-1.95A1,1,0,0,1,1,13V9.27C1,5.15,5.43,1,8.63,1h4.78c3.21,0,7.66,4.19,7.66,8.31V13a1,1,0,0,1-.42.82,2.35,2.35,0,0,0-1,1.95,2.38,2.38,0,0,0,1,1.94A1,1,0,0,1,21,18.73Z"/></g></g></svg>