<svg xmlns="http://www.w3.org/2000/svg" viewBox="0 0 28.69 15.81"><defs><style>.cls-1{fill:#272626;}</style></defs><g id="Layer_2" data-name="Layer 2"><g id="Layer_1-2" data-name="Layer 1"><path class="cls-1" d="M24.32,7.68,13.47,6.77,11.19,5.29S10.7-.45,5.84,0C3.9.22,3.4,1.46,3.4,3.38c0,0-1.94,1.43.49,2.87V9.11H5.35s-.49-1.91,1-1.91v5.26L4.86,13.9H1L0,15.81H10.21l1.46-1.91h3.89l-1,1.91H27.23l1.46-1.43V12Zm-18.14-5a.73.73,0,0,0-.74.73H4.16l.37-1.23H6.18ZM8.75,6,7.06,7.69V2C9.19,4.09,8.75,6,8.75,6Z"/></g></g></svg>