<svg xmlns="http://www.w3.org/2000/svg" viewBox="0 0 26.85 28.69"><defs><style>.cls-1{fill:#272626;}</style></defs><g id="Layer_2" data-name="Layer 2"><g id="Layer_1-2" data-name="Layer 1"><path class="cls-1" d="M8.13,0a12.38,12.38,0,0,0-2,2.93,5.78,5.78,0,0,0-.6,3.28,6.56,6.56,0,0,0,1.63,3A21,21,0,0,0,9.78,11.6a11.2,11.2,0,0,1-3-2,8.74,8.74,0,0,1-1.2-1.43,5.73,5.73,0,0,1-.74-1.78,5.67,5.67,0,0,1,.82-3.67A8.38,8.38,0,0,1,8.13,0Z"/><path class="cls-1" d="M0,5.38c.37,1.18.76,2.35,1.18,3.5.21.57.43,1.14.69,1.68A6.05,6.05,0,0,0,2.78,12a1.27,1.27,0,0,0,.58.39l.39,0h.47l1.85.06c1.23.05,2.47.14,3.71.28-1.24.14-2.48.23-3.71.28l-1.85.06H3.75a2.66,2.66,0,0,1-.53,0,1.81,1.81,0,0,1-1-.59A8.92,8.92,0,0,1,.65,9.05,19.08,19.08,0,0,1,0,5.38Z"/><path class="cls-1" d="M9.61,28.69A8.27,8.27,0,0,1,7.12,26a5.66,5.66,0,0,1-.82-3.67A5.57,5.57,0,0,1,7,20.57a8.26,8.26,0,0,1,1.21-1.42,11.18,11.18,0,0,1,3-2.06,20.92,20.92,0,0,0-2.61,2.44A6.58,6.58,0,0,0,7,22.48a5.79,5.79,0,0,0,.61,3.28A12.18,12.18,0,0,0,9.61,28.69Z"/><path class="cls-1" d="M1.47,23.32a21,21,0,0,1,.65-3.68,9.14,9.14,0,0,1,1.61-3.47,1.88,1.88,0,0,1,1-.59,3.6,3.6,0,0,1,.54,0h.46c.62,0,1.24,0,1.85.06,1.24.05,2.47.14,3.71.28-1.24.14-2.47.24-3.71.28-.61,0-1.23,0-1.85.06H5.23a2.13,2.13,0,0,0-.4,0,1.17,1.17,0,0,0-.57.39,5.7,5.7,0,0,0-.91,1.47c-.27.54-.48,1.11-.7,1.68C2.23,21,1.85,22.13,1.47,23.32Z"/><path class="cls-1" d="M18.71,0A8.27,8.27,0,0,1,21.2,2.67,5.67,5.67,0,0,1,22,6.34a5.48,5.48,0,0,1-.73,1.78,8.33,8.33,0,0,1-1.21,1.43,11.15,11.15,0,0,1-3,2,20.2,20.2,0,0,0,2.61-2.44,6.58,6.58,0,0,0,1.64-2.95,5.79,5.79,0,0,0-.61-3.28A12.38,12.38,0,0,0,18.71,0Z"/><path class="cls-1" d="M26.85,5.38a20.75,20.75,0,0,1-.65,3.67,9.07,9.07,0,0,1-1.61,3.47,1.81,1.81,0,0,1-1,.59,2.75,2.75,0,0,1-.54,0h-.46c-.62,0-1.24,0-1.85-.06-1.24-.05-2.47-.14-3.71-.28,1.24-.14,2.47-.23,3.71-.28.61,0,1.23,0,1.85-.06h.46l.4,0a1.24,1.24,0,0,0,.57-.39A5.76,5.76,0,0,0,25,10.56c.27-.54.48-1.11.7-1.68C26.09,7.73,26.47,6.56,26.85,5.38Z"/><path class="cls-1" d="M17.24,28.69a12.18,12.18,0,0,0,2-2.93,5.88,5.88,0,0,0,.61-3.28,6.68,6.68,0,0,0-1.64-2.95,22.42,22.42,0,0,0-2.61-2.44,11.34,11.34,0,0,1,3,2.06,8.67,8.67,0,0,1,1.2,1.42,5.59,5.59,0,0,1,.74,1.78A5.66,5.66,0,0,1,19.73,26,8.38,8.38,0,0,1,17.24,28.69Z"/><path class="cls-1" d="M25.37,23.32q-.56-1.79-1.17-3.51c-.22-.57-.44-1.14-.7-1.68a6,6,0,0,0-.91-1.47,1.19,1.19,0,0,0-.58-.39,2,2,0,0,0-.39,0h-.46c-.62,0-1.24,0-1.86-.06-1.23,0-2.47-.14-3.7-.28,1.23-.14,2.47-.23,3.7-.28l1.86-.06h.46a3.44,3.44,0,0,1,.53,0,1.88,1.88,0,0,1,1,.59,9,9,0,0,1,1.61,3.47A19.32,19.32,0,0,1,25.37,23.32Z"/><path class="cls-1" d="M13.42,4h0A13.57,13.57,0,0,0,9.33,13.6c0,4,2.83,4.93,2.83,4.93V19.6c-1,0-.67,4.34-.67,4.34l.67.75.28-.75c0-1.65.94-1.63,1-1.63h0c.05,0,1,0,1,1.63l.27.75.67-.75s.34-4.34-.67-4.34V18.53s2.84-1,2.84-4.93A13.6,13.6,0,0,0,13.42,4Z"/></g></g></svg>