<svg xmlns="http://www.w3.org/2000/svg" viewBox="0 0 26.79 16.88"><defs><style>.cls-1{fill:#272626;}</style></defs><g id="Layer_2" data-name="Layer 2"><g id="Layer_1-2" data-name="Layer 1"><path class="cls-1" d="M0,15a1.7,1.7,0,0,0,1.24,1.71c1.09.28,2.59.42,3-.86.67-2.08.58-7.48-.92-7.39S.52,8.23.19,12.22C.08,13.51,0,14.39,0,15Z"/><path class="cls-1" d="M22.1,9.33s.19-1.22.86-1.5,2.32-.24,2.66.75.7,4,1,5.36.46,2.57-1.95,2.91S21.49,14.18,22.1,9.33Z"/><path class="cls-1" d="M5.46,13.9a20.14,20.14,0,0,1,.86-5.55,7.9,7.9,0,0,0,.46-2.09,9.67,9.67,0,0,0-.22-2.65C5.76.1,6.23.92,8.31.68S19.22-.91,20.35,1a2.63,2.63,0,0,1-1.3,3.75c-.69.16.12,3.78.53,4.88.32.85,1.7,2.09,1.49,4.48a2.88,2.88,0,0,1-2.86,2.61c-1.23,0-2.6-.23-3.06-1.15-.9-1.79,2.07-11.17-1.1-11.35S10.22,2.47,10.34,9.1s.3,7-.69,7.47h0A2.89,2.89,0,0,1,5.46,13.9Z"/></g></g></svg>