<svg xmlns="http://www.w3.org/2000/svg" viewBox="0 0 28.69 26.23"><defs><style>.cls-1{fill:#272626;}</style></defs><g id="Layer_2" data-name="Layer 2"><g id="Layer_1-2" data-name="Layer 1"><path class="cls-1" d="M18.86,7.58V9.21H17.63V7.58h-.49V5.69h1.07L14.59,3V1.11h.28s.4,0,.47.24a.08.08,0,0,0,.08.07h.84a.09.09,0,0,0,.07,0l.35-.47a.08.08,0,0,0-.07-.13H16a.08.08,0,0,1-.07,0A.56.56,0,0,0,15.5.47h-.91V0h-.48V3.05L10.56,5.69h1.08V7.58h-.57V9.21H9.84V7.58H8.61V15.3H20.09V7.58Zm-2.44,0H16V9.21h-.82V7.58h-.42V5.69h1.67ZM12.36,5.69H14V7.58h-.5V9.21h-.82V7.58h-.35Zm.55,7.58H10.86V11a1,1,0,0,1,2.05,0Zm2.46,0h-2V11a1,1,0,0,1,2,0Zm2.46,0h-2V11a1,1,0,0,1,2,0Z"/><path class="cls-1" d="M27.62,12.84h1.07l-3.62-2.72V8.06h.28s.4,0,.47.25a.08.08,0,0,0,.08.07h.84a.09.09,0,0,0,.07,0l.35-.47a.09.09,0,0,0-.07-.14h-.58a.09.09,0,0,1-.07,0A.54.54,0,0,0,26,7.42h-.91V7h-.48v3.24L21,12.84h1.08v1.92h-.6v3.82H20.09V16.67H18.65v1.91h-1V16.67H16.26v1.91h-1V16.67H13.39v1.91h-1V16.67H11v1.91H10V16.67H8.61v1.91H7.17V14.76H6.58V12.84H7.65L4.06,10.15V8.22h.29s.4,0,.46.25a.11.11,0,0,0,.09.07h.84a.09.09,0,0,0,.07,0L6.16,8a.09.09,0,0,0-.07-.14H5.51a.09.09,0,0,1-.07,0A.54.54,0,0,0,5,7.58H4.06V7.11H3.59v3L0,12.84H1.08v1.92H.48v3.82H1.91v1l1.2,1.19v5.5H11V23.36h0a3.55,3.55,0,0,1,.08-.47,3.1,3.1,0,0,1,6,0,1.85,1.85,0,0,1,.08.47h0v2.87h8.37v-5.5l1.19-1.19v-1h1.44V14.76h-.6ZM5.86,14.76H5.74v1.91H4.3V14.76H4.18V12.84H5.86Zm-4.07,0V12.84H3.47v1.92H3.35v1.91H1.91V14.76Zm21.05,0V12.84h1.67v1.92h-.12v1.91H23V14.76Zm2.51,1.91V14.76h-.12V12.84H26.9v1.92h-.12v1.91Z"/></g></g></svg>