<svg xmlns="http://www.w3.org/2000/svg" viewBox="0 0 24.59 28.69"><defs><style>.cls-1{fill:#272626;}</style></defs><g id="Layer_2" data-name="Layer 2"><g id="Layer_1-2" data-name="Layer 1"><path class="cls-1" d="M19.62,4.39l-1.2-.29V5.36c0,1.82-1.84,2.69-2.8,3,0-1.42,0-2.93,0-4.57V2.87c0-.26-.41-.48-.92-.48H14.6C14.27,1,12.58,0,10.54,0A4.7,4.7,0,0,0,7,1.38,4.72,4.72,0,0,0,5,1,3.36,3.36,0,0,0,1.94,2.4H1.83c-.5,0-.91.22-.91.48v.95H1a.82.82,0,0,1,.87.89v.06c-.05,22-1.83,22-1.83,22v1.91H17.42V26.78s-1.46,0-1.77-16.33c1.5-.36,3.83-1.48,4.52-3.74,1,.47,2.48,1.44,2.48,3.13V11l-3.29,4c-2.43,2.68-2.43,3.4-2.43,3.67,0,1.32.59,2.9,3.4,2.9h.4v-2h-.4c-1.36,0-1.45-.36-1.46-.79a17.84,17.84,0,0,1,1.95-2.47l3.77-4.57V9.84C24.59,5.67,19.82,4.44,19.62,4.39ZM3.67,26.78H1.83V24.87H3.67Zm1.83-21H3.67V3.83H5.5Zm2.14,21H5.81V24.87H7.64Zm2-21H7.79V3.83H9.63Zm2,21H9.78V24.87h1.83Zm.31-23h1.83V5.74H11.92Zm3.67,23H13.75V24.87h1.84Z"/></g></g></svg>