<svg xmlns="http://www.w3.org/2000/svg" viewBox="0 0 21.04 28.69"><defs><style>.cls-1{fill:#272626;}</style></defs><g id="Layer_2" data-name="Layer 2"><g id="Layer_1-2" data-name="Layer 1"><path class="cls-1" d="M16.74,6.7c0-1.76-1.51-3.27-3.68-3.94a9.77,9.77,0,0,0-1.37-.3.94.94,0,0,1-.77-.54A4.56,4.56,0,0,1,10.52,0a4.58,4.58,0,0,1-.4,1.93,1,1,0,0,1-.75.53A9.32,9.32,0,0,0,8,2.76C5.82,3.43,4.3,4.94,4.3,6.7H0V8.13L2.39,10H18.65L21,8.13V6.7Z"/><rect class="cls-1" x="4.78" y="27.74" width="11.48" height="0.96"/><path class="cls-1" d="M16.74,26.78h2.87L18.17,12.43V10.52H16.74v1.91H15.3V10.52H12.91v1.91H11.48V10.52H9.56v1.91H8.13V10.52H5.74v1.91H4.3V10.52H2.87v1.91L1.43,26.78H4.3v-4.3a1.92,1.92,0,1,1,3.83,0V26.3H5.74v.48H15.3V26.3H12.91V22.48a1.92,1.92,0,1,1,3.83,0v4.3Zm-11.48-10a1.44,1.44,0,1,1,2.87,0Zm5.26-1.44A1.44,1.44,0,0,1,12,16.74H9.09A1.43,1.43,0,0,1,10.52,15.3Zm1.91,11H8.61V21.52a1.91,1.91,0,0,1,3.82,0Zm.48-9.56a1.44,1.44,0,1,1,2.87,0Z"/></g></g></svg>