<svg xmlns="http://www.w3.org/2000/svg" viewBox="0 0 28.69 26.94"><defs><style>.cls-1{fill:#272626;}</style></defs><g id="Layer_2" data-name="Layer 2"><g id="Layer_1-2" data-name="Layer 1"><polygon class="cls-1" points="0 24.54 8.24 24.54 9.98 21.34 1.75 21.34 0 24.54"/><polygon class="cls-1" points="18.71 21.2 20.46 24.54 28.69 24.54 26.95 21.2 18.71 21.2"/><polygon class="cls-1" points="17.84 21.79 10.86 21.79 9.98 23.39 18.71 23.39 17.84 21.79"/><polygon class="cls-1" points="8.24 25.34 7.36 26.94 21.33 26.94 20.46 25.34 8.24 25.34"/><path class="cls-1" d="M27.74,6.86H26.1C26.1,5,23,5.78,23,2.93a2.45,2.45,0,0,1-1.67,2.4C19.16,4,14.35,3.89,14.35,0c0,3.91-4.85,4-7,5.34A2.44,2.44,0,0,1,5.7,2.93C5.7,5.78,2.55,5,2.55,6.86H1V8.77H27.74Z"/><path class="cls-1" d="M26.78,10.68V8.8H24.87v1.88H23V8.8H21v1.88H19.13V8.8H17.22v1.88H15.3V8.8H13.39v1.88H11.48V8.8H9.56v1.88H7.65V8.8H5.74v1.88H3.83V8.8H1.91v1.88H0V12.6H1v1h1v6.7H4.78v-6.7h1v6.7H8.61v-6.7h1v6.7h1.92V15.47a2.87,2.87,0,1,1,5.74,0v4.78h1.91v-6.7h1v6.7H23v-6.7h.95v6.7h2.87v-6.7h1v-1h1V10.68Z"/></g></g></svg>