<svg xmlns="http://www.w3.org/2000/svg" viewBox="0 0 19.13 28.22"><defs><style>.cls-1{fill:#272626;}</style></defs><g id="Layer_2" data-name="Layer 2"><g id="Layer_1-2" data-name="Layer 1"><path class="cls-1" d="M2.87,0C2.39,0,1,5.74,1,5.74H4.78S3.35,0,2.87,0Z"/><path class="cls-1" d="M16.26,0c.48,0,1.91,5.74,1.91,5.74H14.35S15.78,0,16.26,0Z"/><path class="cls-1" d="M18.17,8.13l1-1.43H13.39l1,1.43v5.26H12.91A10.79,10.79,0,0,0,9.56,6.7a10.81,10.81,0,0,0-3.34,6.69H4.78V8.13l1-1.43H0L1,8.13v5.26H0V28.22H5.26L6,26.66h7.19l.71,1.56h5.26V13.39h-1Zm-14.34,12H1.91V17.22a1,1,0,0,1,1.92,0Zm0-8.61H1.91V9.56a1,1,0,0,1,1.92,0Zm9.08,5.26V22H10V16.74a1.44,1.44,0,1,1,2.87,0ZM12,24H7.16L7.65,23h3.83ZM9.56,12.43a1.44,1.44,0,1,1-1.43,1.44A1.44,1.44,0,0,1,9.56,12.43ZM6.22,16.74a1.44,1.44,0,1,1,2.87,0V22H6.22Zm.07,9.2.55-1.19h5.45l.55,1.19Zm10.93-5.85H15.3V17.22a1,1,0,0,1,1.92,0Zm0-8.61H15.3V9.56a1,1,0,0,1,1.92,0Z"/></g></g></svg>