<svg xmlns="http://www.w3.org/2000/svg" viewBox="0 0 28.69 27.74"><defs><style>.cls-1{fill:#272626;}</style></defs><g id="Layer_2" data-name="Layer 2"><g id="Layer_1-2" data-name="Layer 1"><polygon class="cls-1" points="0 25.34 8.24 25.34 9.98 22.13 1.75 22.13 0 25.34"/><polygon class="cls-1" points="18.71 22 20.46 25.34 28.69 25.34 26.95 22 18.71 22"/><polygon class="cls-1" points="17.84 22.59 10.86 22.59 9.98 24.19 18.71 24.19 17.84 22.59"/><polygon class="cls-1" points="8.24 26.14 7.36 27.74 21.33 27.74 20.46 26.14 8.24 26.14"/><path class="cls-1" d="M14.35,0A11.49,11.49,0,0,0,3.9,6.7H24.79A11.47,11.47,0,0,0,14.35,0ZM9.09,4.54a1.44,1.44,0,0,1,2.87,0Zm3.82,0a1.44,1.44,0,0,1,2.87,0Zm3.83,0a1.44,1.44,0,0,1,2.87,0Z"/><path class="cls-1" d="M26.78,11.48V9.56h1V7.65H1V9.56h1v1.92H0v1.91H1v1h1V21H4.78V14.35h1V21H8.61V14.35h1V21h1.92V16.26a2.87,2.87,0,1,1,5.74,0V21h1.91V14.35h1V21H23V14.35h.95V21h2.87V14.35h1v-1h1V11.48ZM24.87,9.56v1.92H23V9.56ZM21,9.56v1.92H19.13V9.56Zm-3.82,0v1.92H15.3V9.56Zm-3.83,0v1.92H11.48V9.56Zm-3.83,0v1.92H7.65V9.56Zm-5.73,0H5.74v1.92H3.83Z"/></g></g></svg>