<svg xmlns="http://www.w3.org/2000/svg" viewBox="0 0 28.69 28.69"><defs><style>.cls-1{fill:#272626;}</style></defs><g id="Layer_2" data-name="Layer 2"><g id="Layer_1-2" data-name="Layer 1"><path class="cls-1" d="M22.08,3.73h-1s0,3.11-1.94,3.11c0,0-2.39-6.84-4.83-6.84S9.51,6.84,9.51,6.84c-1.93,0-1.93-3.11-1.93-3.11h-1c0,8.7-4.84,8.08-4.84,8.08v.62H26.92v-.62S22.08,12.43,22.08,3.73Z"/><path class="cls-1" d="M26.78,15.85V13.39H1.91v2.46H0v1.23H1v.61h1v1.85H3.83V22H5.74V19.54H8.61V22h2.87V18.92c0-1,1.28-1.84,2.87-1.84s2.87.82,2.87,1.84V22h2.87V19.54H23V22h1.91V19.54h1.91V17.69h1v-.61h1V15.85Zm-23,0V14H5.74v1.84Zm3.82,0V14H9.56v1.84Zm3.83,0V14h1.91v1.84Zm3.82,0V14h1.92v1.84Zm3.83,0V14H21v1.84Zm5.74,0H23V14h1.91Z"/><polygon class="cls-1" points="0 26.29 1.75 23.09 9.98 23.09 8.24 26.29 0 26.29"/><polygon class="cls-1" points="28.69 26.29 26.95 22.95 18.71 22.95 20.46 26.29 28.69 26.29"/><polygon class="cls-1" points="9.98 25.14 10.86 23.54 17.84 23.54 18.71 25.14 9.98 25.14"/><polygon class="cls-1" points="7.36 28.69 8.24 27.09 20.46 27.09 21.33 28.69 7.36 28.69"/></g></g></svg>