<svg xmlns="http://www.w3.org/2000/svg" viewBox="0 0 18.17 27.74"><defs><style>.cls-1{fill:#272626;}</style></defs><g id="Layer_2" data-name="Layer 2"><g id="Layer_1-2" data-name="Layer 1"><rect class="cls-1" x="4.3" y="26.3" width="9.56" height="1.43"/><polygon class="cls-1" points="5.74 24.87 12.43 24.87 11.96 18.65 6.22 18.65 5.74 24.87"/><polygon class="cls-1" points="6.7 17.69 7.17 10.04 11 10.04 11.48 17.69 6.7 17.69"/><path class="cls-1" d="M11.48,3.83v-1H6.7v1H0v1L2.39,7.17H6.7V9.09h4.78V7.17h4.3l2.39-2.39v-1ZM7.89,4.3c.4,0,.72.43.72,1H7.17C7.17,4.73,7.5,4.3,7.89,4.3Zm1.2,4.31a1.44,1.44,0,1,1,1.43-1.44A1.43,1.43,0,0,1,9.09,8.61Zm.47-3.35c0-.53.33-1,.72-1s.72.43.72,1Z"/><polygon class="cls-1" points="10.52 0 10.52 0.48 10.04 0.48 9.56 0.48 9.56 0 8.61 0 8.61 0.48 8.13 0.48 7.65 0.48 7.65 0 7.17 0 7.17 1.91 11 1.91 11 0 10.52 0"/></g></g></svg>