<svg xmlns="http://www.w3.org/2000/svg" viewBox="0 0 18.17 25.82"><defs><style>.cls-1{fill:#272626;}</style></defs><g id="Layer_2" data-name="Layer 2"><g id="Layer_1-2" data-name="Layer 1"><polygon class="cls-1" points="0 0 0 2.87 18.17 2.87 18.17 0 16.26 0 15.3 0.96 14.35 0.96 13.39 0 10.52 0 9.56 0.96 8.61 0.96 7.65 0 4.78 0 3.83 0.96 2.87 0.96 1.91 0 0 0"/><path class="cls-1" d="M15.3,6.7l1.92-1.92v-1H15.3v1h-1v-1H12.43v1h-.95v-1H9.56v1h-1v-1H6.7v1h-1v-1H3.83v1h-1v-1H1v1L2.87,6.7V21L1.91,23v2.86H16.26V23L15.3,21Zm-4.78,6.69H7.65V9.8a1.44,1.44,0,0,1,2.87,0Z"/></g></g></svg>