<svg xmlns="http://www.w3.org/2000/svg" viewBox="0 0 22.96 26.78"><defs><style>.cls-1{fill:#272626;}</style></defs><g id="Layer_2" data-name="Layer 2"><g id="Layer_1-2" data-name="Layer 1"><path class="cls-1" d="M21.43,18.38,20.64,16a.1.1,0,0,0-.18,0l-1.22,2.43a.1.1,0,0,1-.19,0L18.23,16a.09.09,0,0,0-.17,0l-1.8,2.24-.47-.93s0,0,0,0V14.83l-1.43.95V6.26a.09.09,0,0,1,0-.07l1.37-1.38a.09.09,0,0,0,0-.07V.24a.1.1,0,0,0-.17-.07L13.39,2.39V0L12,2.87H11L9.56,0V2.39L7.34.17a.1.1,0,0,0-.17.07v4.5a.09.09,0,0,0,0,.07L8.58,6.19a.09.09,0,0,1,0,.07v9.52l-1.44-.95v2.36a.09.09,0,0,1,0,0l-.46.93L4.9,15.93a.1.1,0,0,0-.18,0L3.9,18.42a.1.1,0,0,1-.18,0L2.5,16a.11.11,0,0,0-.19,0l-.79,2.37a.1.1,0,0,1-.18,0L0,14.83v5.7a.14.14,0,0,0,0,.06L.94,22A.14.14,0,0,1,1,22v4.65a.09.09,0,0,0,.1.1H9a.11.11,0,0,0,.1-.1c0-3.37,1.08-5.16,2.39-5.16s2.37,1.79,2.39,5.16a.1.1,0,0,0,.1.1H21.9a.1.1,0,0,0,.1-.1V22A.07.07,0,0,1,22,22l.92-1.38a.14.14,0,0,0,0-.06v-5.7l-1.34,3.56A.1.1,0,0,1,21.43,18.38ZM1.53,21.52a.1.1,0,0,1-.1-.1V19.61l1.92,1.91Zm2.87,0a.1.1,0,0,1-.1-.1V19.61l1.92,1.91Zm2.87,0a.1.1,0,0,1-.1-.1V19.61l1.92,1.91ZM11,12.33a.1.1,0,0,1-.1.1H9.09L11,10.52Zm0-2.87a.1.1,0,0,1-.1.1H9.09L11,7.65ZM11,6.6a.11.11,0,0,1-.1.1H9.09L11,4.78Zm1-1.82L13.87,6.7H12.06a.1.1,0,0,1-.1-.1Zm0,2.87,1.91,1.91H12.06a.09.09,0,0,1-.1-.1Zm.1,4.78a.09.09,0,0,1-.1-.1V10.52l1.91,1.91Zm3.72,9a.09.09,0,0,1-.1.1H13.87l1.91-1.91Zm2.87,0a.09.09,0,0,1-.1.1H16.74l1.91-1.91Zm2.87,0a.09.09,0,0,1-.1.1H19.61l1.91-1.91Z"/></g></g></svg>