<svg xmlns="http://www.w3.org/2000/svg" viewBox="0 0 28.69 20.09"><defs><style>.cls-1{fill:#272626;}</style></defs><g id="Layer_2" data-name="Layer 2"><g id="Layer_1-2" data-name="Layer 1"><path class="cls-1" d="M26.63,11H15.56c-.31-.59-.72-1-1.21-1s-.9.37-1.22,1H2.07A15.09,15.09,0,0,0,0,18.17H12.91c0-4.66,1-7.17,1.44-7.17s1.43,2.51,1.43,7.17H28.69A15.08,15.08,0,0,0,26.63,11ZM8.13,15.3H6.22V13.39a1,1,0,1,1,1.91,0Zm2.87,0H9.09V13.39a1,1,0,1,1,1.91,0Zm8.61,0H17.69V13.39a1,1,0,1,1,1.92,0Zm2.87,0H20.56V13.39a1,1,0,1,1,1.92,0Z"/><path class="cls-1" d="M14.71,3.84V2h.15s.72,0,.85.49c0,.09.07.15.15.15h1.52a.13.13,0,0,0,.12-.07l.64-.94A.17.17,0,0,0,18,1.35H17a.15.15,0,0,1-.13-.07A1,1,0,0,0,16,.72h-1.3V0H14V3.84A14.21,14.21,0,0,0,2.68,10h10a2,2,0,0,1,3.43,0H26A14.22,14.22,0,0,0,14.71,3.84ZM8.13,8.13a1.92,1.92,0,0,1,3.83,0Zm4.3,0a1.92,1.92,0,0,1,3.83,0Zm4.31,0a1.91,1.91,0,1,1,3.82,0Z"/><rect class="cls-1" x="9.09" y="19.13" width="10.52" height="0.96"/></g></g></svg>