<svg xmlns="http://www.w3.org/2000/svg" viewBox="0 0 27.74 25.82"><defs><style>.cls-1{fill:#272626;}</style></defs><g id="Layer_2" data-name="Layer 2"><g id="Layer_1-2" data-name="Layer 1"><path class="cls-1" d="M25.35,14.35v1h-1v-1h-1v1h-.95v-1H20.56v1h-.95v-1h-1v1h-1v-1h-1v1h-1v-1h-.95v1H12.91v-1H12v1H11v-1H10v1H9.09v-1h-1v1h-1v-1H5.26v1h-1v-1H3.35v1h-1v-1H.48v1h1V23H11V20.09a2.87,2.87,0,0,1,5.74,0V23H26.3V15.3h1v-1ZM7.17,20.09H5.26V18.17a1,1,0,0,1,1.91,0Zm15.31,0H20.56V18.17a1,1,0,0,1,1.92,0Z"/><rect class="cls-1" x="9.09" y="24.87" width="9.56" height="0.96"/><path class="cls-1" d="M0,12.91H27.74l-2.87-4.3V6.22l.95-1.44v-1H23.91L21.52,5.74H19.61V0H17.69V1.43h-1V0h-1V1.43H14.35V0h-1V1.43H12V0H11V1.43H10V0H8.13V5.74H6.22L3.83,3.83H1.91v1l1,1.44V8.61ZM15.54,3.35a1,1,0,0,1,1.92,0V5.74H15.54Zm-2.63,0a1,1,0,0,1,1.92,0V5.74H12.91Zm-2.63,0a1,1,0,1,1,1.91,0V5.74H10.28Z"/></g></g></svg>