<svg xmlns="http://www.w3.org/2000/svg" viewBox="0 0 26.78 26.78"><defs><style>.cls-1{fill:#272626;}</style></defs><g id="Layer_2" data-name="Layer 2"><g id="Layer_1-2" data-name="Layer 1"><rect class="cls-1" x="7.65" y="25.82" width="11.48" height="0.96"/><path class="cls-1" d="M23.91,6.22V3.83l1.44-1.44v-1H23.43L21,3.83H15.3V2.39l1-1h-1V1c0-.53-.32-1-.71-1s-.72.43-.72,1h-1c0-.53-.32-1-.72-1s-.71.43-.71,1v.47h-1l1,1V3.83H5.74L3.35,1.43H1.43v1L2.87,3.83V6.22L0,15.3H9.49a18.24,18.24,0,0,1,3.16-5.87l.74-.89.74.89a18.24,18.24,0,0,1,3.16,5.87h9.49ZM8.12,12H4.79a2,2,0,0,1,0-.24c0-2.51.75-4.55,1.68-4.55s1.67,2,1.67,4.55A2,2,0,0,1,8.12,12ZM22,12H18.66a2,2,0,0,1,0-.24c0-2.51.75-4.55,1.67-4.55S22,9.21,22,11.72A2,2,0,0,1,22,12Z"/><path class="cls-1" d="M9.06,16.74a26.23,26.23,0,0,0-.92,6.69h0v1.44H6.7V23.43H0V21l1.43-1.43V16.74Z"/><path class="cls-1" d="M26.78,21v2.39H20.09v1.44H18.65V23.43h0a26.23,26.23,0,0,0-.92-6.69h7.63v2.87Z"/><path class="cls-1" d="M17.69,23.91h-1a22.29,22.29,0,0,0-3.35-12.27A22.29,22.29,0,0,0,10,23.91H9.09A23.32,23.32,0,0,1,12.6,11.1l.79-1.17.79,1.17A23.32,23.32,0,0,1,17.69,23.91Z"/><rect class="cls-1" x="11.48" y="22.96" width="2.39" height="0.96"/><rect class="cls-1" x="12.91" y="22.96" width="2.39" height="0.96"/></g></g></svg>