<svg xmlns="http://www.w3.org/2000/svg" viewBox="0 0 26.78 26.78"><defs><style>.cls-1{fill:#272626;}</style></defs><g id="Layer_2" data-name="Layer 2"><g id="Layer_1-2" data-name="Layer 1"><rect class="cls-1" x="7.65" y="25.82" width="11.48" height="0.96"/><path class="cls-1" d="M1.43,16.74v2.87L0,21v2.39H6.7v1.44H8.13V18.65a5.27,5.27,0,0,1,.36-1.91H1.43Z"/><path class="cls-1" d="M25.35,16.74H18.29a5.27,5.27,0,0,1,.36,1.91v6.22h1.44V23.43h6.69V21l-1.43-1.43Z"/><path class="cls-1" d="M17.69,24.39h-1V18.65a3.35,3.35,0,0,0-6.7,0v5.74H9.09V18.65a4.3,4.3,0,0,1,8.6,0Z"/><line class="cls-1" x1="22" y1="11.96" x2="25.82" y2="11.96"/><path class="cls-1" d="M23.91,6.22V3.83l1.44-1.44v-1H23.43L21,3.83H15.3V2.39l1-1h-1V1c0-.53-.32-1-.71-1s-.72.43-.72,1h-1c0-.53-.32-1-.72-1s-.71.43-.71,1v.47h-1l1,1V3.83H5.74L3.35,1.43H1.43v1L2.87,3.83V6.22L0,15.3H9.33a5.27,5.27,0,0,1,8.12,0h9.33ZM8.12,12H4.79a2,2,0,0,1,0-.24c0-2.51.75-4.55,1.68-4.55s1.67,2,1.67,4.55A2,2,0,0,1,8.12,12ZM22,12H18.66a2,2,0,0,1,0-.24c0-2.51.75-4.55,1.67-4.55S22,9.21,22,11.72A2,2,0,0,1,22,12Z"/></g></g></svg>