<svg xmlns="http://www.w3.org/2000/svg" viewBox="0 0 28.69 25.82"><defs><style>.cls-1{fill:#272626;}</style></defs><g id="Layer_2" data-name="Layer 2"><g id="Layer_1-2" data-name="Layer 1"><path class="cls-1" d="M25.82,14.35v1h-.95v-1h-1v1H23v-1H21v1h-.95v-1h-1v1h-1v-1h-1v1h-1v-1h-1v1H13.39v-1h-1v1h-.95v-1h-1v1h-1v-1h-1v1h-1v-1H5.74v1h-1v-1h-1v1h-1v-1H1v1h1V23h9.57V20.09a2.87,2.87,0,1,1,5.74,0V23h9.56V15.3h1v-1ZM7.65,20.09H5.74V18.17a1,1,0,0,1,1.91,0Zm15.31,0H21V18.17a1,1,0,0,1,1.92,0Z"/><path class="cls-1" d="M23.91,0H23S23,4.78,21,4.78H7.65C5.74,4.78,5.74,0,5.74,0h-1C4.78,13.39,0,12.43,0,12.43v1H28.69v-1S23.91,13.39,23.91,0ZM12.43,10.52H10.52V8.61a1,1,0,1,1,1.91,0Zm2.87,0H13.39V8.61a1,1,0,1,1,1.91,0Zm2.87,0H16.26V8.61a1,1,0,1,1,1.91,0Z"/><rect class="cls-1" x="9.56" y="24.87" width="9.56" height="0.96"/></g></g></svg>