<svg xmlns="http://www.w3.org/2000/svg" viewBox="0 0 28.69 19.61"><defs><style>.cls-1{fill:#272626;}</style></defs><g id="Layer_2" data-name="Layer 2"><g id="Layer_1-2" data-name="Layer 1"><path class="cls-1" d="M28.69,19.61,26.3,10.52,27.74,10l.48-.95h-2.4a4.46,4.46,0,0,0-.5-1.41A3.53,3.53,0,0,0,23,5.84a2.23,2.23,0,0,1-1.44-2A1.43,1.43,0,0,1,23,2.39l.47-1H21L20.09,0H8.61l-1,1.43H5.26l.48,1A1.43,1.43,0,0,1,7.17,3.83a2.23,2.23,0,0,1-1.43,2A3.53,3.53,0,0,0,3.38,7.68a4.35,4.35,0,0,0-.51,1.41H.48L1,10l1.43.48L0,19.61H11V15.78a3.35,3.35,0,1,1,6.69,0v3.83ZM22.48,9.09h1.43v1.43H22.48Zm-1,3.82A1.44,1.44,0,0,1,23,14.35v1.91H20.09V14.35A1.43,1.43,0,0,1,21.52,12.91Zm-1-3.82v1.43H19.13V9.09Zm-15.78,0H6.22v1.43H4.78Zm3.83,7.17H5.74V14.35a1.44,1.44,0,1,1,2.87,0Zm1-5.74H8.13V9.09H9.56Zm-1-4.3V4.3a1.44,1.44,0,0,1,2.87,0V6.22Zm4.3,4.3H11.48V9.09h1.43Zm0-4.3V4.3a1.44,1.44,0,0,1,2.87,0V6.22H12.91Zm4.31,4.3H15.78V9.09h1.44Zm0-4.3V4.3a1.44,1.44,0,0,1,2.87,0V6.22Z"/></g></g></svg>