<svg xmlns="http://www.w3.org/2000/svg" viewBox="0 0 26.78 17.96"><defs><style>.cls-1{fill:#272626;}</style></defs><g id="Layer_2" data-name="Layer 2"><g id="Layer_1-2" data-name="Layer 1"><path class="cls-1" d="M21.63,5.84s-.46-1.9-7.7-5.71a1.19,1.19,0,0,0-1.07,0C5.61,3.94,5.15,5.84,5.15,5.84H21.63Z"/><path class="cls-1" d="M26.76,14.6a16.08,16.08,0,0,0-.35-2.34,16.16,16.16,0,0,1-.13,2.32,5.2,5.2,0,0,1-.22,1,1.16,1.16,0,0,1-.23.45H24.12s.07-.12.11-.17a6.2,6.2,0,0,0,.7-1.85,10.07,10.07,0,0,0,.19-1.88,14.92,14.92,0,0,0-.14-1.8,13,13,0,0,1-.34,1.69,6.84,6.84,0,0,1-.58,1.46,3.34,3.34,0,0,1-.81,1,2.09,2.09,0,0,1-.45.26h-.06A11.57,11.57,0,0,0,21.66,11H17c-.07-.21-.16-.43-.24-.63h7a7.71,7.71,0,0,0-2-3.8H5a7.66,7.66,0,0,0-2,3.8h7c-.09.2-.17.42-.25.63H5.12A11.8,11.8,0,0,0,4,14.78H4a1.7,1.7,0,0,1-.45-.26,3.36,3.36,0,0,1-.82-1,8.88,8.88,0,0,1-.58-1.46c-.14-.54-.25-1.11-.34-1.69a17.36,17.36,0,0,0-.12,1.8A9.3,9.3,0,0,0,1.86,14a5.92,5.92,0,0,0,.69,1.85l.12.17H1a1.16,1.16,0,0,1-.23-.45,6,6,0,0,1-.23-1,17.76,17.76,0,0,1-.12-2.32A17.57,17.57,0,0,0,0,14.6a9,9,0,0,0,0,1.27,2.28,2.28,0,0,0,.6,1.46H9.86V18h1v-4.8a3.81,3.81,0,0,1,1.1-2.8,2.09,2.09,0,0,1,1.48-.64,2.13,2.13,0,0,1,1.49.64A3.88,3.88,0,0,1,16,13.16V18h.95v-.63h9.24a2.28,2.28,0,0,0,.6-1.46A6.76,6.76,0,0,0,26.76,14.6Z"/></g></g></svg>