<svg xmlns="http://www.w3.org/2000/svg" viewBox="0 0 25.82 17.69"><defs><style>.cls-1{fill:#272626;}</style></defs><g id="Layer_2" data-name="Layer 2"><g id="Layer_1-2" data-name="Layer 1"><path class="cls-1" d="M8,14.3V3.06a1.28,1.28,0,0,0-.84-1.31A1.11,1.11,0,0,0,6,2c-1.68,1.51-1,6-1.83,7.3s-1-.47-1.44-.47S.53,13,0,14.21a.23.23,0,0,0,.22.32H7.77A.23.23,0,0,0,8,14.3Z"/><path class="cls-1" d="M24.87,8.37c-1-.48-2.39,1-2.39,1A2.38,2.38,0,0,1,23,7.89c.34-.34-1.43-6.7-2.86-6.7-.72,0-1.2.72-1.5,1.44a5.85,5.85,0,0,0-.42,2.23v9.48a.24.24,0,0,0,.24.24h7.18a.23.23,0,0,0,.23-.24V12.19S25.82,8.84,24.87,8.37Z"/><path class="cls-1" d="M9.46,1.91h1.4a.5.5,0,0,0,.46-.7C11,.54,10.4,0,10,0S9.35.62,9,1.15A.5.5,0,0,0,9.46,1.91Z"/><path class="cls-1" d="M16,0c-.88-.11-1.62.83-1.62,1.68h2.84A1.46,1.46,0,0,0,16,0Z"/><path class="cls-1" d="M19.13,16.26s-.48,1-1.91,0a4.83,4.83,0,0,0-2.39-1,5,5,0,0,1-1.2,1.19v-3.1a.24.24,0,0,0-.24-.24h-.24v-.24a.24.24,0,0,0-.48,0v3.83s0,0,0,.05a.92.92,0,0,1-.26-.05,9.38,9.38,0,0,1-.95-.24.24.24,0,0,0,.24-.24V13.87a.24.24,0,0,0-.48,0v2.39a.24.24,0,0,0,.23.24,8.6,8.6,0,0,1-1.19-.45V13.87a.24.24,0,0,0-.48,0v1.94a3.88,3.88,0,0,1-.71-.51c-1.92,0-3.83,2.39-3.83,2.39H21C21,15.78,19.13,16.26,19.13,16.26Z"/><path class="cls-1" d="M10.28,2.87a.24.24,0,0,0-.48,0v1a.24.24,0,0,0,.48,0Z"/><path class="cls-1" d="M10.28,4.78a.24.24,0,0,0-.48,0V8.61a.24.24,0,0,0,.48,0Z"/><path class="cls-1" d="M10,11.24a.24.24,0,0,0-.24.24V12a.24.24,0,0,0,.48,0v-.48A.24.24,0,0,0,10,11.24Z"/><path class="cls-1" d="M11.24,2.87v.48a.24.24,0,0,0,.48,0V2.87a.24.24,0,0,0-.48,0Z"/><path class="cls-1" d="M11.72,4.78a.24.24,0,0,0-.48,0V8.13a.24.24,0,0,0,.48,0Z"/><path class="cls-1" d="M11.48,10.76a.24.24,0,0,0-.24.24v1a.24.24,0,0,0,.48,0V11A.24.24,0,0,0,11.48,10.76Z"/><path class="cls-1" d="M12.91,4.06a.23.23,0,0,0,.24-.23V3.59h.24a.24.24,0,0,0,.24-.24V2.87a.24.24,0,0,0-.24-.24h-.48a.24.24,0,0,0-.24.24v1A.23.23,0,0,0,12.91,4.06Z"/><path class="cls-1" d="M12.91,9.33a.24.24,0,0,0,.24-.24V8.85h.24a.24.24,0,0,0,.24-.24V4.78a.24.24,0,0,0-.48,0V5.5h-.24a.24.24,0,0,0-.24.24V9.09A.24.24,0,0,0,12.91,9.33Z"/><path class="cls-1" d="M12.91,12.19h.24v.24a.24.24,0,0,0,.48,0V11a.24.24,0,0,0-.24-.24h-.24v-.24a.24.24,0,0,0-.48,0V12A.23.23,0,0,0,12.91,12.19Z"/><path class="cls-1" d="M15.06,2.87a.24.24,0,1,0-.47,0V4.3a.24.24,0,1,0,.47,0Z"/><path class="cls-1" d="M15.06,5.74a.24.24,0,1,0-.47,0V7.65a.24.24,0,1,0,.47,0Z"/><path class="cls-1" d="M15.06,9.56a.23.23,0,0,0-.23-.23.23.23,0,0,0-.24.23v1a.24.24,0,1,0,.47,0Z"/><path class="cls-1" d="M14.83,11.72a.23.23,0,0,0-.24.24v2.39a.24.24,0,1,0,.47,0V12A.23.23,0,0,0,14.83,11.72Z"/><path class="cls-1" d="M17,2.87a.24.24,0,0,0-.48,0V4.3a.24.24,0,0,0,.48,0Z"/><path class="cls-1" d="M17,5.74a.24.24,0,0,0-.48,0V9.09a.24.24,0,0,0,.48,0Z"/><path class="cls-1" d="M17,10.52a.24.24,0,0,0-.48,0V12A.24.24,0,0,0,17,12Z"/><path class="cls-1" d="M16.74,13.15a.24.24,0,0,0-.24.24V15.3a.24.24,0,0,0,.48,0V13.39A.24.24,0,0,0,16.74,13.15Z"/></g></g></svg>