<svg xmlns="http://www.w3.org/2000/svg" viewBox="0 0 22.96 22.96"><defs><style>.cls-1{fill:#272626;}</style></defs><g id="Layer_2" data-name="Layer 2"><g id="Layer_1-2" data-name="Layer 1"><path class="cls-1" d="M11.09,16.89a7,7,0,0,0,6.6-4.56,3.88,3.88,0,0,0,.21-.63,7.22,7.22,0,0,0,.22-1.09c0-.41.06-.83.06-1.18a6.5,6.5,0,0,0-1.85-4.57,7.2,7.2,0,0,0-4.91-2.17l-.36,0a8.2,8.2,0,0,0-3.38.64A9,9,0,0,0,4.26,5.89,9.62,9.62,0,0,0,2.54,9.42a8.65,8.65,0,0,0,0,4.2,9.07,9.07,0,0,0,8.62,7.17c6.79.27,11.73-4.55,11.73-10.17a10.76,10.76,0,0,0-.07-1.15,11,11,0,0,1,.19,2C23,17.82,17.26,23,11.11,23A11.3,11.3,0,0,1,0,11.48C0,5.16,4.22,0,11.48,0h.07a9.45,9.45,0,0,1,9.36,9.43A9.74,9.74,0,0,1,11.05,19h0a7.43,7.43,0,0,1-7.37-7.42,7.34,7.34,0,0,1,7.09-7.4h.05a5.12,5.12,0,0,1,.56,0c3.49.29,5.17,3.05,5.17,6.31a6.12,6.12,0,0,1-.38,2.15,4.26,4.26,0,0,0,.17-.82c0-.13,0-.28.05-.42s0-.29,0-.44,0-.42,0-.63a5.8,5.8,0,0,0-5-5.28l-.59,0a5.29,5.29,0,0,0-2.26.5A5.64,5.64,0,0,0,6.62,7a5.51,5.51,0,0,0-.8,1.17A6.92,6.92,0,0,0,5.39,9.2a7.06,7.06,0,0,0-.16.88,6.64,6.64,0,0,0,.5,3.66,5.51,5.51,0,0,0,5.32,3.15Z"/></g></g></svg>