<svg xmlns="http://www.w3.org/2000/svg" viewBox="0 0 17.98 28.69"><defs><style>.cls-1{fill:#272626;}</style></defs><g id="Layer_2" data-name="Layer 2"><g id="Layer_1-2" data-name="Layer 1"><polygon class="cls-1" points="4.54 8.04 4.38 10.29 5.65 9.02 4.54 8.04"/><polygon class="cls-1" points="13.44 8.04 13.6 10.29 12.33 9.02 13.44 8.04"/><polygon class="cls-1" points="13.31 25.24 11.58 25.24 9.85 25.24 8.12 25.24 6.4 25.24 4.67 25.24 2.94 25.24 2.94 26.96 4.67 26.96 4.67 28.69 6.4 28.69 8.12 28.69 9.85 28.69 11.58 28.69 13.31 28.69 13.31 26.96 15.04 26.96 15.04 25.24 13.31 25.24"/><path class="cls-1" d="M9,12.45l-4.5,4.49L4.15,24.2h4V21.61a.87.87,0,1,1,1.73,0V24.2h4l-.35-7.26Z"/><path class="cls-1" d="M11.49,9.68a2.69,2.69,0,0,0,0-1.38h.26L18,2.42,15.56,0,9.68,6.22v.27a2.69,2.69,0,0,0-1.38,0V6.22L2.42,0,0,2.42,6.22,8.3h.27a2.69,2.69,0,0,0,0,1.38H6.22L0,15.56,2.42,18,8.3,11.75v-.26a2.69,2.69,0,0,0,1.38,0v.26L15.56,18,18,15.56,11.75,9.68ZM9,9.85A.87.87,0,1,1,9.85,9,.86.86,0,0,1,9,9.85Z"/><rect class="cls-1" x="8.13" y="3.29" width="1.71" height="1.71" transform="translate(-0.3 7.57) rotate(-45)"/></g></g></svg>