<svg xmlns="http://www.w3.org/2000/svg" viewBox="0 0 27.74 19.13"><defs><style>.cls-1{fill:#272626;}</style></defs><g id="Layer_2" data-name="Layer 2"><g id="Layer_1-2" data-name="Layer 1"><path class="cls-1" d="M10.81,11.48a67.58,67.58,0,0,0-1.25,7.17H7.65v-1H0V16.26l4.3-4.78Z"/><path class="cls-1" d="M27.74,16.26v1.43H20.09v1H18.17a66.16,66.16,0,0,0-1.24-7.17h6.5Z"/><rect class="cls-1" x="10.52" y="18.65" width="6.7" height="0.48"/><rect class="cls-1" x="10.76" y="16.42" width="6.22" height="0.48"/><rect class="cls-1" x="11.24" y="14.19" width="5.26" height="0.48"/><rect class="cls-1" x="11.72" y="11.96" width="4.3" height="0.48"/><path class="cls-1" d="M8.13,3.83A57.85,57.85,0,0,0,7.05,10H20.44a35.64,35.64,0,0,0-.83-6.21Z"/><rect class="cls-1" x="8.61" y="2.39" width="0.96" height="1.43"/><rect class="cls-1" x="10.52" y="2.39" width="0.96" height="1.43"/><rect class="cls-1" x="12.43" y="2.39" width="0.96" height="1.43"/><rect class="cls-1" x="14.35" y="2.39" width="0.96" height="1.43"/><rect class="cls-1" x="16.26" y="2.39" width="0.96" height="1.43"/><rect class="cls-1" x="18.17" y="2.39" width="0.96" height="1.43"/><polygon class="cls-1" points="18.65 0.96 18.17 0 9.56 0 9.09 0.96 7.17 0.96 8.13 1.91 19.61 1.91 20.56 0.96 18.65 0.96"/></g></g></svg>